<svg xmlns="http://www.w3.org/2000/svg" xmlns:xlink="http://www.w3.org/1999/xlink" width="1230" height="848" viewBox="0 0 1230 848"><defs><clipPath id="a"><rect width="232.479" height="59.853" fill="#355190"></rect></clipPath><clipPath id="b"><rect width="232.479" height="59.853" fill="#8bafff"></rect></clipPath><clipPath id="c"><rect width="232.479" height="59.853" fill="#ffc7ee"></rect></clipPath><clipPath id="d"><rect width="232.479" height="59.853" fill="#eee523"></rect></clipPath><clipPath id="e"><rect width="232.479" height="59.853" fill="#fff"></rect></clipPath><clipPath id="f"><rect width="232.479" height="59.853" fill="#ff7d42"></rect></clipPath></defs><g transform="translate(-9821 -13639)"><rect width="410" height="424" transform="translate(9821 13639)" fill="#ffc7ee"></rect><rect width="410" height="424" transform="translate(9821 14063)" fill="#2fe5cb"></rect><rect width="410" height="424" transform="translate(10231 13639)" fill="#acefff"></rect><rect width="410" height="424" transform="translate(10231 14063)" fill="#ffd166"></rect><rect width="410" height="424" transform="translate(10641 13639)" fill="#ff7d42"></rect><rect width="410" height="424" transform="translate(10641 14063)" fill="#8bafff"></rect><g transform="translate(9898.869 12819.742)"><g transform="translate(416.402 1426.033)"><g transform="translate(0 0)" clip-path="url(#a)"><path d="M85.889,8.248a19.915,19.915,0,0,0-10.47-2.741A21.7,21.7,0,0,0,56.413,16.335,21.951,21.951,0,0,0,53.5,27.6a21.882,21.882,0,0,0,2.96,11.314A21.355,21.355,0,0,0,64.5,46.829,22.858,22.858,0,0,0,75.948,49.7a23.949,23.949,0,0,0,9.367-1.857,20,20,0,0,0,4.174-2.36,4,4,0,0,0,.478-6.023l-.722-.734a3.894,3.894,0,0,0-4.936-.569,12.882,12.882,0,0,1-2.394,1.288A15.682,15.682,0,0,1,75.86,40.6a13.468,13.468,0,0,1-6.716-1.638,11.192,11.192,0,0,1-4.51-4.641,13.065,13.065,0,0,1-1.174-3.179,3.912,3.912,0,0,0,.822.088H86.406a39.991,39.991,0,0,0,6.753-.657C95.27,30,95.7,27.354,95.67,26.216a20.418,20.418,0,0,0-.148-2.121,21.735,21.735,0,0,0-2.474-8.334,19.524,19.524,0,0,0-7.16-7.513M63.5,23.353a12.374,12.374,0,0,1,1.049-2.863,10.845,10.845,0,0,1,4.24-4.464,12.622,12.622,0,0,1,6.452-1.59,11.71,11.71,0,0,1,5.966,1.413,9.469,9.469,0,0,1,3.756,4.066,13.609,13.609,0,0,1,1.089,3.358H64.281a3.943,3.943,0,0,0-.782.08" transform="translate(98.625 10.151)" fill="#355190"></path><path d="M100.749,29.947a12.091,12.091,0,0,0-4.109-3.89,25.081,25.081,0,0,0-5.306-2.3q-2.781-.84-5.3-1.547a16.255,16.255,0,0,1-4.109-1.681,3.043,3.043,0,0,1-1.592-2.738,2.79,2.79,0,0,1,1.592-2.562,9.4,9.4,0,0,1,4.507-.884A12.517,12.517,0,0,1,91.911,15.5a11.266,11.266,0,0,1,1.524.89,4.461,4.461,0,0,0,5.718-.444l.117-.117a4.4,4.4,0,0,0-.3-6.56,16.573,16.573,0,0,0-3.213-1.948A21.465,21.465,0,0,0,86.7,5.507,20.025,20.025,0,0,0,78.342,7.1a12.377,12.377,0,0,0-5.391,4.507,12.5,12.5,0,0,0-1.9,6.984,10.961,10.961,0,0,0,1.59,6.188,11.4,11.4,0,0,0,4.112,3.753,25.709,25.709,0,0,0,5.3,2.167q2.781.8,5.3,1.547a15.391,15.391,0,0,1,4.109,1.811,3.407,3.407,0,0,1,1.592,3.006,3.09,3.09,0,0,1-1.681,2.829,10.07,10.07,0,0,1-4.951.972,15.788,15.788,0,0,1-6.495-1.282,13.406,13.406,0,0,1-2.451-1.413,4.353,4.353,0,0,0-5.6.535,4.456,4.456,0,0,0,.62,6.8c.3.216.614.424.933.623a22.993,22.993,0,0,0,6.008,2.653,24.851,24.851,0,0,0,6.8.927q7.426,0,11.755-3.623a12.134,12.134,0,0,0,4.334-9.813,11.355,11.355,0,0,0-1.592-6.318" transform="translate(130.141 10.151)" fill="#355190"></path><path d="M55.757,8.425A22.163,22.163,0,0,0,44.445,5.508a21.738,21.738,0,0,0-11.226,2.96,22.4,22.4,0,0,0-8,7.911,21.281,21.281,0,0,0-2.96,11.135A21.745,21.745,0,0,0,25.22,38.74a22.147,22.147,0,0,0,8,8A21.712,21.712,0,0,0,44.445,49.7a21.889,21.889,0,0,0,11.312-2.963,22.155,22.155,0,0,0,8-8,21.772,21.772,0,0,0,2.96-11.226,21.532,21.532,0,0,0-2.96-11.178,21.917,21.917,0,0,0-8-7.911m-.574,25.72A11.317,11.317,0,0,1,50.855,38.7a12.444,12.444,0,0,1-6.409,1.635A12.26,12.26,0,0,1,38.124,38.7,11.317,11.317,0,0,1,33.8,34.145a13.89,13.89,0,0,1-1.547-6.631A13.36,13.36,0,0,1,33.8,20.977a11.477,11.477,0,0,1,4.328-4.464,12.26,12.26,0,0,1,6.321-1.635,12.2,12.2,0,0,1,6.364,1.635,11.906,11.906,0,0,1,4.328,4.464,13.1,13.1,0,0,1,1.592,6.537,13.957,13.957,0,0,1-1.547,6.631" transform="translate(41.037 10.153)" fill="#355190"></path><path d="M141,22.234c-.011.023-.011.048-.023.074-3.8,7.575-5.821,12.142-9.918,20.232-2.849-6.04-3.893-8.576-6.762-14.789l-2.05-4.7c-3.759-7.888-8.209-14.235-16.254-18.119C95.981.094,85.275-1.461,74.791,2.2,64.645,5.753,56.638,14.334,49.8,22.4a121.233,121.233,0,0,0-9.495,12.918c-2.775,4.322-5.44,9.122-9.586,12.315a6.881,6.881,0,0,0-.842.779c-.074.04-.154.048-.225.094a12.06,12.06,0,0,1-1.681.876,14.465,14.465,0,0,1-5.7,1.1,12.417,12.417,0,0,1-6.409-1.635,11.362,11.362,0,0,1-4.328-4.507,13.661,13.661,0,0,1-1.547-6.586,13.6,13.6,0,0,1,1.547-6.628,11.476,11.476,0,0,1,4.328-4.464,12.444,12.444,0,0,1,6.409-1.635,14.467,14.467,0,0,1,5.7,1.106,11.582,11.582,0,0,1,1.678.876,4.633,4.633,0,0,0,5.789-.606,4.572,4.572,0,0,0-.523-6.935,20.6,20.6,0,0,0-3.409-1.908,22.513,22.513,0,0,0-9.236-1.9,22.434,22.434,0,0,0-11.357,2.917,21.444,21.444,0,0,0-8,7.911A21.925,21.925,0,0,0,0,37.757,21.991,21.991,0,0,0,2.917,48.983a21.348,21.348,0,0,0,8,7.953,22.4,22.4,0,0,0,11.357,2.917,22.557,22.557,0,0,0,9.236-1.9,20.546,20.546,0,0,0,3.412-1.911l.026-.023a3.108,3.108,0,0,0,.509-.287c7.373-5.676,11.363-13.825,16.7-21.233,5.482-7.609,12.475-16.541,20.7-21.258,5.6-3.213,11.931-3.617,18.176-3.008C100.9,11.98,108.942,17.576,113.013,26c.273.535.543,1.075.779,1.629A200.21,200.21,0,0,1,126.714,56.51a4.762,4.762,0,0,0,9.048,0c1.712-4.7,3.119-8.411,4.447-11.707.006-.017,7.754-19.219,15.213-27.682,4.294-4.6,11.92-8.073,20.1-8.073a22.561,22.561,0,0,1,13.316,4.183,46.147,46.147,0,0,1,5.133,3.671c1.956,1.567,4.316,2.477,6.355,1a4.55,4.55,0,0,0,1-6.355c-.4-.54-7.348-11.5-25.979-11.5h-.034s-21.8-2-34.313,22.194" transform="translate(0 -0.001)" fill="#355190"></path></g></g><path d="M32.109,24.637a41.956,41.956,0,0,1-5.634-.385C9.366,21.881.84,6.541.485,5.889A3.984,3.984,0,0,1,7.479,2.071c.092.166,7.052,12.481,20.078,14.287A29.315,29.315,0,0,0,53.629,7.193,3.984,3.984,0,1,1,59.4,12.682,36.62,36.62,0,0,1,32.109,24.637Z" transform="matrix(0.998, -0.07, 0.07, 0.998, 470.119, 1482.484)" fill="#355190"></path><path d="M3.98,24.626A3.982,3.982,0,0,1,.653,18.462,44.545,44.545,0,0,1,31.322.372C41.715-.794,56.854.224,70.011,11.693A3.984,3.984,0,1,1,64.774,17.7C53.8,8.134,41.015,7.3,32.221,8.289,15.943,10.158,7.391,22.721,7.306,22.848A3.993,3.993,0,0,1,3.98,24.626Z" transform="matrix(0.998, 0.07, -0.07, 0.998, 556.288, 1403.454)" fill="#355190"></path></g><g transform="translate(9898.869 12395.742)"><g transform="translate(416.402 1426.033)"><g transform="translate(0 0)" clip-path="url(#b)"><path d="M85.889,8.248a19.915,19.915,0,0,0-10.47-2.741A21.7,21.7,0,0,0,56.413,16.335,21.951,21.951,0,0,0,53.5,27.6a21.882,21.882,0,0,0,2.96,11.314A21.355,21.355,0,0,0,64.5,46.829,22.858,22.858,0,0,0,75.948,49.7a23.949,23.949,0,0,0,9.367-1.857,20,20,0,0,0,4.174-2.36,4,4,0,0,0,.478-6.023l-.722-.734a3.894,3.894,0,0,0-4.936-.569,12.882,12.882,0,0,1-2.394,1.288A15.682,15.682,0,0,1,75.86,40.6a13.468,13.468,0,0,1-6.716-1.638,11.192,11.192,0,0,1-4.51-4.641,13.065,13.065,0,0,1-1.174-3.179,3.912,3.912,0,0,0,.822.088H86.406a39.991,39.991,0,0,0,6.753-.657C95.27,30,95.7,27.354,95.67,26.216a20.418,20.418,0,0,0-.148-2.121,21.735,21.735,0,0,0-2.474-8.334,19.524,19.524,0,0,0-7.16-7.513M63.5,23.353a12.374,12.374,0,0,1,1.049-2.863,10.845,10.845,0,0,1,4.24-4.464,12.622,12.622,0,0,1,6.452-1.59,11.71,11.71,0,0,1,5.966,1.413,9.469,9.469,0,0,1,3.756,4.066,13.609,13.609,0,0,1,1.089,3.358H64.281a3.943,3.943,0,0,0-.782.08" transform="translate(98.625 10.151)" fill="#8bafff"></path><path d="M100.749,29.947a12.091,12.091,0,0,0-4.109-3.89,25.081,25.081,0,0,0-5.306-2.3q-2.781-.84-5.3-1.547a16.255,16.255,0,0,1-4.109-1.681,3.043,3.043,0,0,1-1.592-2.738,2.79,2.79,0,0,1,1.592-2.562,9.4,9.4,0,0,1,4.507-.884A12.517,12.517,0,0,1,91.911,15.5a11.266,11.266,0,0,1,1.524.89,4.461,4.461,0,0,0,5.718-.444l.117-.117a4.4,4.4,0,0,0-.3-6.56,16.573,16.573,0,0,0-3.213-1.948A21.465,21.465,0,0,0,86.7,5.507,20.025,20.025,0,0,0,78.342,7.1a12.377,12.377,0,0,0-5.391,4.507,12.5,12.5,0,0,0-1.9,6.984,10.961,10.961,0,0,0,1.59,6.188,11.4,11.4,0,0,0,4.112,3.753,25.709,25.709,0,0,0,5.3,2.167q2.781.8,5.3,1.547a15.391,15.391,0,0,1,4.109,1.811,3.407,3.407,0,0,1,1.592,3.006,3.09,3.09,0,0,1-1.681,2.829,10.07,10.07,0,0,1-4.951.972,15.788,15.788,0,0,1-6.495-1.282,13.406,13.406,0,0,1-2.451-1.413,4.353,4.353,0,0,0-5.6.535,4.456,4.456,0,0,0,.62,6.8c.3.216.614.424.933.623a22.993,22.993,0,0,0,6.008,2.653,24.851,24.851,0,0,0,6.8.927q7.426,0,11.755-3.623a12.134,12.134,0,0,0,4.334-9.813,11.355,11.355,0,0,0-1.592-6.318" transform="translate(130.141 10.151)" fill="#8bafff"></path><path d="M55.757,8.425A22.163,22.163,0,0,0,44.445,5.508a21.738,21.738,0,0,0-11.226,2.96,22.4,22.4,0,0,0-8,7.911,21.281,21.281,0,0,0-2.96,11.135A21.745,21.745,0,0,0,25.22,38.74a22.147,22.147,0,0,0,8,8A21.712,21.712,0,0,0,44.445,49.7a21.889,21.889,0,0,0,11.312-2.963,22.155,22.155,0,0,0,8-8,21.772,21.772,0,0,0,2.96-11.226,21.532,21.532,0,0,0-2.96-11.178,21.917,21.917,0,0,0-8-7.911m-.574,25.72A11.317,11.317,0,0,1,50.855,38.7a12.444,12.444,0,0,1-6.409,1.635A12.26,12.26,0,0,1,38.124,38.7,11.317,11.317,0,0,1,33.8,34.145a13.89,13.89,0,0,1-1.547-6.631A13.36,13.36,0,0,1,33.8,20.977a11.477,11.477,0,0,1,4.328-4.464,12.26,12.26,0,0,1,6.321-1.635,12.2,12.2,0,0,1,6.364,1.635,11.906,11.906,0,0,1,4.328,4.464,13.1,13.1,0,0,1,1.592,6.537,13.957,13.957,0,0,1-1.547,6.631" transform="translate(41.037 10.153)" fill="#8bafff"></path><path d="M141,22.234c-.011.023-.011.048-.023.074-3.8,7.575-5.821,12.142-9.918,20.232-2.849-6.04-3.893-8.576-6.762-14.789l-2.05-4.7c-3.759-7.888-8.209-14.235-16.254-18.119C95.981.094,85.275-1.461,74.791,2.2,64.645,5.753,56.638,14.334,49.8,22.4a121.233,121.233,0,0,0-9.495,12.918c-2.775,4.322-5.44,9.122-9.586,12.315a6.881,6.881,0,0,0-.842.779c-.074.04-.154.048-.225.094a12.06,12.06,0,0,1-1.681.876,14.465,14.465,0,0,1-5.7,1.1,12.417,12.417,0,0,1-6.409-1.635,11.362,11.362,0,0,1-4.328-4.507,13.661,13.661,0,0,1-1.547-6.586,13.6,13.6,0,0,1,1.547-6.628,11.476,11.476,0,0,1,4.328-4.464,12.444,12.444,0,0,1,6.409-1.635,14.467,14.467,0,0,1,5.7,1.106,11.582,11.582,0,0,1,1.678.876,4.633,4.633,0,0,0,5.789-.606,4.572,4.572,0,0,0-.523-6.935,20.6,20.6,0,0,0-3.409-1.908,22.513,22.513,0,0,0-9.236-1.9,22.434,22.434,0,0,0-11.357,2.917,21.444,21.444,0,0,0-8,7.911A21.925,21.925,0,0,0,0,37.757,21.991,21.991,0,0,0,2.917,48.983a21.348,21.348,0,0,0,8,7.953,22.4,22.4,0,0,0,11.357,2.917,22.557,22.557,0,0,0,9.236-1.9,20.546,20.546,0,0,0,3.412-1.911l.026-.023a3.108,3.108,0,0,0,.509-.287c7.373-5.676,11.363-13.825,16.7-21.233,5.482-7.609,12.475-16.541,20.7-21.258,5.6-3.213,11.931-3.617,18.176-3.008C100.9,11.98,108.942,17.576,113.013,26c.273.535.543,1.075.779,1.629A200.21,200.21,0,0,1,126.714,56.51a4.762,4.762,0,0,0,9.048,0c1.712-4.7,3.119-8.411,4.447-11.707.006-.017,7.754-19.219,15.213-27.682,4.294-4.6,11.92-8.073,20.1-8.073a22.561,22.561,0,0,1,13.316,4.183,46.147,46.147,0,0,1,5.133,3.671c1.956,1.567,4.316,2.477,6.355,1a4.55,4.55,0,0,0,1-6.355c-.4-.54-7.348-11.5-25.979-11.5h-.034s-21.8-2-34.313,22.194" transform="translate(0 -0.001)" fill="#8bafff"></path></g></g><path d="M32.109,24.637a41.956,41.956,0,0,1-5.634-.385C9.366,21.881.84,6.541.485,5.889A3.984,3.984,0,0,1,7.479,2.071c.092.166,7.052,12.481,20.078,14.287A29.315,29.315,0,0,0,53.629,7.193,3.984,3.984,0,1,1,59.4,12.682,36.62,36.62,0,0,1,32.109,24.637Z" transform="matrix(0.998, -0.07, 0.07, 0.998, 470.119, 1482.484)" fill="#8bafff"></path><path d="M3.98,24.626A3.982,3.982,0,0,1,.653,18.462,44.545,44.545,0,0,1,31.322.372C41.715-.794,56.854.224,70.011,11.693A3.984,3.984,0,1,1,64.774,17.7C53.8,8.134,41.015,7.3,32.221,8.289,15.943,10.158,7.391,22.721,7.306,22.848A3.993,3.993,0,0,1,3.98,24.626Z" transform="matrix(0.998, 0.07, -0.07, 0.998, 556.288, 1403.454)" fill="#8bafff"></path></g><g transform="translate(10313.358 12819.742)"><g transform="translate(416.402 1426.033)"><g transform="translate(0 0)" clip-path="url(#c)"><path d="M85.889,8.248a19.915,19.915,0,0,0-10.47-2.741A21.7,21.7,0,0,0,56.413,16.335,21.951,21.951,0,0,0,53.5,27.6a21.882,21.882,0,0,0,2.96,11.314A21.355,21.355,0,0,0,64.5,46.829,22.858,22.858,0,0,0,75.948,49.7a23.949,23.949,0,0,0,9.367-1.857,20,20,0,0,0,4.174-2.36,4,4,0,0,0,.478-6.023l-.722-.734a3.894,3.894,0,0,0-4.936-.569,12.882,12.882,0,0,1-2.394,1.288A15.682,15.682,0,0,1,75.86,40.6a13.468,13.468,0,0,1-6.716-1.638,11.192,11.192,0,0,1-4.51-4.641,13.065,13.065,0,0,1-1.174-3.179,3.912,3.912,0,0,0,.822.088H86.406a39.991,39.991,0,0,0,6.753-.657C95.27,30,95.7,27.354,95.67,26.216a20.418,20.418,0,0,0-.148-2.121,21.735,21.735,0,0,0-2.474-8.334,19.524,19.524,0,0,0-7.16-7.513M63.5,23.353a12.374,12.374,0,0,1,1.049-2.863,10.845,10.845,0,0,1,4.24-4.464,12.622,12.622,0,0,1,6.452-1.59,11.71,11.71,0,0,1,5.966,1.413,9.469,9.469,0,0,1,3.756,4.066,13.609,13.609,0,0,1,1.089,3.358H64.281a3.943,3.943,0,0,0-.782.08" transform="translate(98.625 10.151)" fill="#ffc7ee"></path><path d="M100.749,29.947a12.091,12.091,0,0,0-4.109-3.89,25.081,25.081,0,0,0-5.306-2.3q-2.781-.84-5.3-1.547a16.255,16.255,0,0,1-4.109-1.681,3.043,3.043,0,0,1-1.592-2.738,2.79,2.79,0,0,1,1.592-2.562,9.4,9.4,0,0,1,4.507-.884A12.517,12.517,0,0,1,91.911,15.5a11.266,11.266,0,0,1,1.524.89,4.461,4.461,0,0,0,5.718-.444l.117-.117a4.4,4.4,0,0,0-.3-6.56,16.573,16.573,0,0,0-3.213-1.948A21.465,21.465,0,0,0,86.7,5.507,20.025,20.025,0,0,0,78.342,7.1a12.377,12.377,0,0,0-5.391,4.507,12.5,12.5,0,0,0-1.9,6.984,10.961,10.961,0,0,0,1.59,6.188,11.4,11.4,0,0,0,4.112,3.753,25.709,25.709,0,0,0,5.3,2.167q2.781.8,5.3,1.547a15.391,15.391,0,0,1,4.109,1.811,3.407,3.407,0,0,1,1.592,3.006,3.09,3.09,0,0,1-1.681,2.829,10.07,10.07,0,0,1-4.951.972,15.788,15.788,0,0,1-6.495-1.282,13.406,13.406,0,0,1-2.451-1.413,4.353,4.353,0,0,0-5.6.535,4.456,4.456,0,0,0,.62,6.8c.3.216.614.424.933.623a22.993,22.993,0,0,0,6.008,2.653,24.851,24.851,0,0,0,6.8.927q7.426,0,11.755-3.623a12.134,12.134,0,0,0,4.334-9.813,11.355,11.355,0,0,0-1.592-6.318" transform="translate(130.141 10.151)" fill="#ffc7ee"></path><path d="M55.757,8.425A22.163,22.163,0,0,0,44.445,5.508a21.738,21.738,0,0,0-11.226,2.96,22.4,22.4,0,0,0-8,7.911,21.281,21.281,0,0,0-2.96,11.135A21.745,21.745,0,0,0,25.22,38.74a22.147,22.147,0,0,0,8,8A21.712,21.712,0,0,0,44.445,49.7a21.889,21.889,0,0,0,11.312-2.963,22.155,22.155,0,0,0,8-8,21.772,21.772,0,0,0,2.96-11.226,21.532,21.532,0,0,0-2.96-11.178,21.917,21.917,0,0,0-8-7.911m-.574,25.72A11.317,11.317,0,0,1,50.855,38.7a12.444,12.444,0,0,1-6.409,1.635A12.26,12.26,0,0,1,38.124,38.7,11.317,11.317,0,0,1,33.8,34.145a13.89,13.89,0,0,1-1.547-6.631A13.36,13.36,0,0,1,33.8,20.977a11.477,11.477,0,0,1,4.328-4.464,12.26,12.26,0,0,1,6.321-1.635,12.2,12.2,0,0,1,6.364,1.635,11.906,11.906,0,0,1,4.328,4.464,13.1,13.1,0,0,1,1.592,6.537,13.957,13.957,0,0,1-1.547,6.631" transform="translate(41.037 10.153)" fill="#ffc7ee"></path><path d="M141,22.234c-.011.023-.011.048-.023.074-3.8,7.575-5.821,12.142-9.918,20.232-2.849-6.04-3.893-8.576-6.762-14.789l-2.05-4.7c-3.759-7.888-8.209-14.235-16.254-18.119C95.981.094,85.275-1.461,74.791,2.2,64.645,5.753,56.638,14.334,49.8,22.4a121.233,121.233,0,0,0-9.495,12.918c-2.775,4.322-5.44,9.122-9.586,12.315a6.881,6.881,0,0,0-.842.779c-.074.04-.154.048-.225.094a12.06,12.06,0,0,1-1.681.876,14.465,14.465,0,0,1-5.7,1.1,12.417,12.417,0,0,1-6.409-1.635,11.362,11.362,0,0,1-4.328-4.507,13.661,13.661,0,0,1-1.547-6.586,13.6,13.6,0,0,1,1.547-6.628,11.476,11.476,0,0,1,4.328-4.464,12.444,12.444,0,0,1,6.409-1.635,14.467,14.467,0,0,1,5.7,1.106,11.582,11.582,0,0,1,1.678.876,4.633,4.633,0,0,0,5.789-.606,4.572,4.572,0,0,0-.523-6.935,20.6,20.6,0,0,0-3.409-1.908,22.513,22.513,0,0,0-9.236-1.9,22.434,22.434,0,0,0-11.357,2.917,21.444,21.444,0,0,0-8,7.911A21.925,21.925,0,0,0,0,37.757,21.991,21.991,0,0,0,2.917,48.983a21.348,21.348,0,0,0,8,7.953,22.4,22.4,0,0,0,11.357,2.917,22.557,22.557,0,0,0,9.236-1.9,20.546,20.546,0,0,0,3.412-1.911l.026-.023a3.108,3.108,0,0,0,.509-.287c7.373-5.676,11.363-13.825,16.7-21.233,5.482-7.609,12.475-16.541,20.7-21.258,5.6-3.213,11.931-3.617,18.176-3.008C100.9,11.98,108.942,17.576,113.013,26c.273.535.543,1.075.779,1.629A200.21,200.21,0,0,1,126.714,56.51a4.762,4.762,0,0,0,9.048,0c1.712-4.7,3.119-8.411,4.447-11.707.006-.017,7.754-19.219,15.213-27.682,4.294-4.6,11.92-8.073,20.1-8.073a22.561,22.561,0,0,1,13.316,4.183,46.147,46.147,0,0,1,5.133,3.671c1.956,1.567,4.316,2.477,6.355,1a4.55,4.55,0,0,0,1-6.355c-.4-.54-7.348-11.5-25.979-11.5h-.034s-21.8-2-34.313,22.194" transform="translate(0 -0.001)" fill="#ffc7ee"></path></g></g><path d="M32.109,24.637a41.956,41.956,0,0,1-5.634-.385C9.366,21.881.84,6.541.485,5.889A3.984,3.984,0,0,1,7.479,2.071c.092.166,7.052,12.481,20.078,14.287A29.315,29.315,0,0,0,53.629,7.193,3.984,3.984,0,1,1,59.4,12.682,36.62,36.62,0,0,1,32.109,24.637Z" transform="matrix(0.998, -0.07, 0.07, 0.998, 470.119, 1482.484)" fill="#ffc7ee"></path><path d="M3.98,24.626A3.982,3.982,0,0,1,.653,18.462,44.545,44.545,0,0,1,31.322.372C41.715-.794,56.854.224,70.011,11.693A3.984,3.984,0,1,1,64.774,17.7C53.8,8.134,41.015,7.3,32.221,8.289,15.943,10.158,7.391,22.721,7.306,22.848A3.993,3.993,0,0,1,3.98,24.626Z" transform="matrix(0.998, 0.07, -0.07, 0.998, 556.288, 1403.454)" fill="#ffc7ee"></path></g><g transform="translate(10313.358 12395.742)"><g transform="translate(416.402 1426.033)"><g transform="translate(0 0)" clip-path="url(#d)"><path d="M85.889,8.248a19.915,19.915,0,0,0-10.47-2.741A21.7,21.7,0,0,0,56.413,16.335,21.951,21.951,0,0,0,53.5,27.6a21.882,21.882,0,0,0,2.96,11.314A21.355,21.355,0,0,0,64.5,46.829,22.858,22.858,0,0,0,75.948,49.7a23.949,23.949,0,0,0,9.367-1.857,20,20,0,0,0,4.174-2.36,4,4,0,0,0,.478-6.023l-.722-.734a3.894,3.894,0,0,0-4.936-.569,12.882,12.882,0,0,1-2.394,1.288A15.682,15.682,0,0,1,75.86,40.6a13.468,13.468,0,0,1-6.716-1.638,11.192,11.192,0,0,1-4.51-4.641,13.065,13.065,0,0,1-1.174-3.179,3.912,3.912,0,0,0,.822.088H86.406a39.991,39.991,0,0,0,6.753-.657C95.27,30,95.7,27.354,95.67,26.216a20.418,20.418,0,0,0-.148-2.121,21.735,21.735,0,0,0-2.474-8.334,19.524,19.524,0,0,0-7.16-7.513M63.5,23.353a12.374,12.374,0,0,1,1.049-2.863,10.845,10.845,0,0,1,4.24-4.464,12.622,12.622,0,0,1,6.452-1.59,11.71,11.71,0,0,1,5.966,1.413,9.469,9.469,0,0,1,3.756,4.066,13.609,13.609,0,0,1,1.089,3.358H64.281a3.943,3.943,0,0,0-.782.08" transform="translate(98.625 10.151)" fill="#eee523"></path><path d="M100.749,29.947a12.091,12.091,0,0,0-4.109-3.89,25.081,25.081,0,0,0-5.306-2.3q-2.781-.84-5.3-1.547a16.255,16.255,0,0,1-4.109-1.681,3.043,3.043,0,0,1-1.592-2.738,2.79,2.79,0,0,1,1.592-2.562,9.4,9.4,0,0,1,4.507-.884A12.517,12.517,0,0,1,91.911,15.5a11.266,11.266,0,0,1,1.524.89,4.461,4.461,0,0,0,5.718-.444l.117-.117a4.4,4.4,0,0,0-.3-6.56,16.573,16.573,0,0,0-3.213-1.948A21.465,21.465,0,0,0,86.7,5.507,20.025,20.025,0,0,0,78.342,7.1a12.377,12.377,0,0,0-5.391,4.507,12.5,12.5,0,0,0-1.9,6.984,10.961,10.961,0,0,0,1.59,6.188,11.4,11.4,0,0,0,4.112,3.753,25.709,25.709,0,0,0,5.3,2.167q2.781.8,5.3,1.547a15.391,15.391,0,0,1,4.109,1.811,3.407,3.407,0,0,1,1.592,3.006,3.09,3.09,0,0,1-1.681,2.829,10.07,10.07,0,0,1-4.951.972,15.788,15.788,0,0,1-6.495-1.282,13.406,13.406,0,0,1-2.451-1.413,4.353,4.353,0,0,0-5.6.535,4.456,4.456,0,0,0,.62,6.8c.3.216.614.424.933.623a22.993,22.993,0,0,0,6.008,2.653,24.851,24.851,0,0,0,6.8.927q7.426,0,11.755-3.623a12.134,12.134,0,0,0,4.334-9.813,11.355,11.355,0,0,0-1.592-6.318" transform="translate(130.141 10.151)" fill="#eee523"></path><path d="M55.757,8.425A22.163,22.163,0,0,0,44.445,5.508a21.738,21.738,0,0,0-11.226,2.96,22.4,22.4,0,0,0-8,7.911,21.281,21.281,0,0,0-2.96,11.135A21.745,21.745,0,0,0,25.22,38.74a22.147,22.147,0,0,0,8,8A21.712,21.712,0,0,0,44.445,49.7a21.889,21.889,0,0,0,11.312-2.963,22.155,22.155,0,0,0,8-8,21.772,21.772,0,0,0,2.96-11.226,21.532,21.532,0,0,0-2.96-11.178,21.917,21.917,0,0,0-8-7.911m-.574,25.72A11.317,11.317,0,0,1,50.855,38.7a12.444,12.444,0,0,1-6.409,1.635A12.26,12.26,0,0,1,38.124,38.7,11.317,11.317,0,0,1,33.8,34.145a13.89,13.89,0,0,1-1.547-6.631A13.36,13.36,0,0,1,33.8,20.977a11.477,11.477,0,0,1,4.328-4.464,12.26,12.26,0,0,1,6.321-1.635,12.2,12.2,0,0,1,6.364,1.635,11.906,11.906,0,0,1,4.328,4.464,13.1,13.1,0,0,1,1.592,6.537,13.957,13.957,0,0,1-1.547,6.631" transform="translate(41.037 10.153)" fill="#eee523"></path><path d="M141,22.234c-.011.023-.011.048-.023.074-3.8,7.575-5.821,12.142-9.918,20.232-2.849-6.04-3.893-8.576-6.762-14.789l-2.05-4.7c-3.759-7.888-8.209-14.235-16.254-18.119C95.981.094,85.275-1.461,74.791,2.2,64.645,5.753,56.638,14.334,49.8,22.4a121.233,121.233,0,0,0-9.495,12.918c-2.775,4.322-5.44,9.122-9.586,12.315a6.881,6.881,0,0,0-.842.779c-.074.04-.154.048-.225.094a12.06,12.06,0,0,1-1.681.876,14.465,14.465,0,0,1-5.7,1.1,12.417,12.417,0,0,1-6.409-1.635,11.362,11.362,0,0,1-4.328-4.507,13.661,13.661,0,0,1-1.547-6.586,13.6,13.6,0,0,1,1.547-6.628,11.476,11.476,0,0,1,4.328-4.464,12.444,12.444,0,0,1,6.409-1.635,14.467,14.467,0,0,1,5.7,1.106,11.582,11.582,0,0,1,1.678.876,4.633,4.633,0,0,0,5.789-.606,4.572,4.572,0,0,0-.523-6.935,20.6,20.6,0,0,0-3.409-1.908,22.513,22.513,0,0,0-9.236-1.9,22.434,22.434,0,0,0-11.357,2.917,21.444,21.444,0,0,0-8,7.911A21.925,21.925,0,0,0,0,37.757,21.991,21.991,0,0,0,2.917,48.983a21.348,21.348,0,0,0,8,7.953,22.4,22.4,0,0,0,11.357,2.917,22.557,22.557,0,0,0,9.236-1.9,20.546,20.546,0,0,0,3.412-1.911l.026-.023a3.108,3.108,0,0,0,.509-.287c7.373-5.676,11.363-13.825,16.7-21.233,5.482-7.609,12.475-16.541,20.7-21.258,5.6-3.213,11.931-3.617,18.176-3.008C100.9,11.98,108.942,17.576,113.013,26c.273.535.543,1.075.779,1.629A200.21,200.21,0,0,1,126.714,56.51a4.762,4.762,0,0,0,9.048,0c1.712-4.7,3.119-8.411,4.447-11.707.006-.017,7.754-19.219,15.213-27.682,4.294-4.6,11.92-8.073,20.1-8.073a22.561,22.561,0,0,1,13.316,4.183,46.147,46.147,0,0,1,5.133,3.671c1.956,1.567,4.316,2.477,6.355,1a4.55,4.55,0,0,0,1-6.355c-.4-.54-7.348-11.5-25.979-11.5h-.034s-21.8-2-34.313,22.194" transform="translate(0 -0.001)" fill="#eee523"></path></g></g><path d="M32.109,24.637a41.956,41.956,0,0,1-5.634-.385C9.366,21.881.84,6.541.485,5.889A3.984,3.984,0,0,1,7.479,2.071c.092.166,7.052,12.481,20.078,14.287A29.315,29.315,0,0,0,53.629,7.193,3.984,3.984,0,1,1,59.4,12.682,36.62,36.62,0,0,1,32.109,24.637Z" transform="matrix(0.998, -0.07, 0.07, 0.998, 470.119, 1482.484)" fill="#eee523"></path><path d="M3.98,24.626A3.982,3.982,0,0,1,.653,18.462,44.545,44.545,0,0,1,31.322.372C41.715-.794,56.854.224,70.011,11.693A3.984,3.984,0,1,1,64.774,17.7C53.8,8.134,41.015,7.3,32.221,8.289,15.943,10.158,7.391,22.721,7.306,22.848A3.993,3.993,0,0,1,3.98,24.626Z" transform="matrix(0.998, 0.07, -0.07, 0.998, 556.288, 1403.454)" fill="#eee523"></path></g><g transform="translate(9493.358 12819.742)"><g transform="translate(416.402 1426.033)"><g transform="translate(0 0)" clip-path="url(#e)"><path d="M85.889,8.248a19.915,19.915,0,0,0-10.47-2.741A21.7,21.7,0,0,0,56.413,16.335,21.951,21.951,0,0,0,53.5,27.6a21.882,21.882,0,0,0,2.96,11.314A21.355,21.355,0,0,0,64.5,46.829,22.858,22.858,0,0,0,75.948,49.7a23.949,23.949,0,0,0,9.367-1.857,20,20,0,0,0,4.174-2.36,4,4,0,0,0,.478-6.023l-.722-.734a3.894,3.894,0,0,0-4.936-.569,12.882,12.882,0,0,1-2.394,1.288A15.682,15.682,0,0,1,75.86,40.6a13.468,13.468,0,0,1-6.716-1.638,11.192,11.192,0,0,1-4.51-4.641,13.065,13.065,0,0,1-1.174-3.179,3.912,3.912,0,0,0,.822.088H86.406a39.991,39.991,0,0,0,6.753-.657C95.27,30,95.7,27.354,95.67,26.216a20.418,20.418,0,0,0-.148-2.121,21.735,21.735,0,0,0-2.474-8.334,19.524,19.524,0,0,0-7.16-7.513M63.5,23.353a12.374,12.374,0,0,1,1.049-2.863,10.845,10.845,0,0,1,4.24-4.464,12.622,12.622,0,0,1,6.452-1.59,11.71,11.71,0,0,1,5.966,1.413,9.469,9.469,0,0,1,3.756,4.066,13.609,13.609,0,0,1,1.089,3.358H64.281a3.943,3.943,0,0,0-.782.08" transform="translate(98.625 10.151)" fill="#fff"></path><path d="M100.749,29.947a12.091,12.091,0,0,0-4.109-3.89,25.081,25.081,0,0,0-5.306-2.3q-2.781-.84-5.3-1.547a16.255,16.255,0,0,1-4.109-1.681,3.043,3.043,0,0,1-1.592-2.738,2.79,2.79,0,0,1,1.592-2.562,9.4,9.4,0,0,1,4.507-.884A12.517,12.517,0,0,1,91.911,15.5a11.266,11.266,0,0,1,1.524.89,4.461,4.461,0,0,0,5.718-.444l.117-.117a4.4,4.4,0,0,0-.3-6.56,16.573,16.573,0,0,0-3.213-1.948A21.465,21.465,0,0,0,86.7,5.507,20.025,20.025,0,0,0,78.342,7.1a12.377,12.377,0,0,0-5.391,4.507,12.5,12.5,0,0,0-1.9,6.984,10.961,10.961,0,0,0,1.59,6.188,11.4,11.4,0,0,0,4.112,3.753,25.709,25.709,0,0,0,5.3,2.167q2.781.8,5.3,1.547a15.391,15.391,0,0,1,4.109,1.811,3.407,3.407,0,0,1,1.592,3.006,3.09,3.09,0,0,1-1.681,2.829,10.07,10.07,0,0,1-4.951.972,15.788,15.788,0,0,1-6.495-1.282,13.406,13.406,0,0,1-2.451-1.413,4.353,4.353,0,0,0-5.6.535,4.456,4.456,0,0,0,.62,6.8c.3.216.614.424.933.623a22.993,22.993,0,0,0,6.008,2.653,24.851,24.851,0,0,0,6.8.927q7.426,0,11.755-3.623a12.134,12.134,0,0,0,4.334-9.813,11.355,11.355,0,0,0-1.592-6.318" transform="translate(130.141 10.151)" fill="#fff"></path><path d="M55.757,8.425A22.163,22.163,0,0,0,44.445,5.508a21.738,21.738,0,0,0-11.226,2.96,22.4,22.4,0,0,0-8,7.911,21.281,21.281,0,0,0-2.96,11.135A21.745,21.745,0,0,0,25.22,38.74a22.147,22.147,0,0,0,8,8A21.712,21.712,0,0,0,44.445,49.7a21.889,21.889,0,0,0,11.312-2.963,22.155,22.155,0,0,0,8-8,21.772,21.772,0,0,0,2.96-11.226,21.532,21.532,0,0,0-2.96-11.178,21.917,21.917,0,0,0-8-7.911m-.574,25.72A11.317,11.317,0,0,1,50.855,38.7a12.444,12.444,0,0,1-6.409,1.635A12.26,12.26,0,0,1,38.124,38.7,11.317,11.317,0,0,1,33.8,34.145a13.89,13.89,0,0,1-1.547-6.631A13.36,13.36,0,0,1,33.8,20.977a11.477,11.477,0,0,1,4.328-4.464,12.26,12.26,0,0,1,6.321-1.635,12.2,12.2,0,0,1,6.364,1.635,11.906,11.906,0,0,1,4.328,4.464,13.1,13.1,0,0,1,1.592,6.537,13.957,13.957,0,0,1-1.547,6.631" transform="translate(41.037 10.153)" fill="#fff"></path><path d="M141,22.234c-.011.023-.011.048-.023.074-3.8,7.575-5.821,12.142-9.918,20.232-2.849-6.04-3.893-8.576-6.762-14.789l-2.05-4.7c-3.759-7.888-8.209-14.235-16.254-18.119C95.981.094,85.275-1.461,74.791,2.2,64.645,5.753,56.638,14.334,49.8,22.4a121.233,121.233,0,0,0-9.495,12.918c-2.775,4.322-5.44,9.122-9.586,12.315a6.881,6.881,0,0,0-.842.779c-.074.04-.154.048-.225.094a12.06,12.06,0,0,1-1.681.876,14.465,14.465,0,0,1-5.7,1.1,12.417,12.417,0,0,1-6.409-1.635,11.362,11.362,0,0,1-4.328-4.507,13.661,13.661,0,0,1-1.547-6.586,13.6,13.6,0,0,1,1.547-6.628,11.476,11.476,0,0,1,4.328-4.464,12.444,12.444,0,0,1,6.409-1.635,14.467,14.467,0,0,1,5.7,1.106,11.582,11.582,0,0,1,1.678.876,4.633,4.633,0,0,0,5.789-.606,4.572,4.572,0,0,0-.523-6.935,20.6,20.6,0,0,0-3.409-1.908,22.513,22.513,0,0,0-9.236-1.9,22.434,22.434,0,0,0-11.357,2.917,21.444,21.444,0,0,0-8,7.911A21.925,21.925,0,0,0,0,37.757,21.991,21.991,0,0,0,2.917,48.983a21.348,21.348,0,0,0,8,7.953,22.4,22.4,0,0,0,11.357,2.917,22.557,22.557,0,0,0,9.236-1.9,20.546,20.546,0,0,0,3.412-1.911l.026-.023a3.108,3.108,0,0,0,.509-.287c7.373-5.676,11.363-13.825,16.7-21.233,5.482-7.609,12.475-16.541,20.7-21.258,5.6-3.213,11.931-3.617,18.176-3.008C100.9,11.98,108.942,17.576,113.013,26c.273.535.543,1.075.779,1.629A200.21,200.21,0,0,1,126.714,56.51a4.762,4.762,0,0,0,9.048,0c1.712-4.7,3.119-8.411,4.447-11.707.006-.017,7.754-19.219,15.213-27.682,4.294-4.6,11.92-8.073,20.1-8.073a22.561,22.561,0,0,1,13.316,4.183,46.147,46.147,0,0,1,5.133,3.671c1.956,1.567,4.316,2.477,6.355,1a4.55,4.55,0,0,0,1-6.355c-.4-.54-7.348-11.5-25.979-11.5h-.034s-21.8-2-34.313,22.194" transform="translate(0 -0.001)" fill="#fff"></path></g></g><path d="M32.109,24.637a41.956,41.956,0,0,1-5.634-.385C9.366,21.881.84,6.541.485,5.889A3.984,3.984,0,0,1,7.479,2.071c.092.166,7.052,12.481,20.078,14.287A29.315,29.315,0,0,0,53.629,7.193,3.984,3.984,0,1,1,59.4,12.682,36.62,36.62,0,0,1,32.109,24.637Z" transform="matrix(0.998, -0.07, 0.07, 0.998, 470.119, 1482.484)" fill="#fff"></path><path d="M3.98,24.626A3.982,3.982,0,0,1,.653,18.462,44.545,44.545,0,0,1,31.322.372C41.715-.794,56.854.224,70.011,11.693A3.984,3.984,0,1,1,64.774,17.7C53.8,8.134,41.015,7.3,32.221,8.289,15.943,10.158,7.391,22.721,7.306,22.848A3.993,3.993,0,0,1,3.98,24.626Z" transform="matrix(0.998, 0.07, -0.07, 0.998, 556.288, 1403.454)" fill="#fff"></path></g><g transform="translate(9493.358 12395.742)"><g transform="translate(416.402 1426.033)"><g transform="translate(0 0)" clip-path="url(#f)"><path d="M85.889,8.248a19.915,19.915,0,0,0-10.47-2.741A21.7,21.7,0,0,0,56.413,16.335,21.951,21.951,0,0,0,53.5,27.6a21.882,21.882,0,0,0,2.96,11.314A21.355,21.355,0,0,0,64.5,46.829,22.858,22.858,0,0,0,75.948,49.7a23.949,23.949,0,0,0,9.367-1.857,20,20,0,0,0,4.174-2.36,4,4,0,0,0,.478-6.023l-.722-.734a3.894,3.894,0,0,0-4.936-.569,12.882,12.882,0,0,1-2.394,1.288A15.682,15.682,0,0,1,75.86,40.6a13.468,13.468,0,0,1-6.716-1.638,11.192,11.192,0,0,1-4.51-4.641,13.065,13.065,0,0,1-1.174-3.179,3.912,3.912,0,0,0,.822.088H86.406a39.991,39.991,0,0,0,6.753-.657C95.27,30,95.7,27.354,95.67,26.216a20.418,20.418,0,0,0-.148-2.121,21.735,21.735,0,0,0-2.474-8.334,19.524,19.524,0,0,0-7.16-7.513M63.5,23.353a12.374,12.374,0,0,1,1.049-2.863,10.845,10.845,0,0,1,4.24-4.464,12.622,12.622,0,0,1,6.452-1.59,11.71,11.71,0,0,1,5.966,1.413,9.469,9.469,0,0,1,3.756,4.066,13.609,13.609,0,0,1,1.089,3.358H64.281a3.943,3.943,0,0,0-.782.08" transform="translate(98.625 10.151)" fill="#ff7d42"></path><path d="M100.749,29.947a12.091,12.091,0,0,0-4.109-3.89,25.081,25.081,0,0,0-5.306-2.3q-2.781-.84-5.3-1.547a16.255,16.255,0,0,1-4.109-1.681,3.043,3.043,0,0,1-1.592-2.738,2.79,2.79,0,0,1,1.592-2.562,9.4,9.4,0,0,1,4.507-.884A12.517,12.517,0,0,1,91.911,15.5a11.266,11.266,0,0,1,1.524.89,4.461,4.461,0,0,0,5.718-.444l.117-.117a4.4,4.4,0,0,0-.3-6.56,16.573,16.573,0,0,0-3.213-1.948A21.465,21.465,0,0,0,86.7,5.507,20.025,20.025,0,0,0,78.342,7.1a12.377,12.377,0,0,0-5.391,4.507,12.5,12.5,0,0,0-1.9,6.984,10.961,10.961,0,0,0,1.59,6.188,11.4,11.4,0,0,0,4.112,3.753,25.709,25.709,0,0,0,5.3,2.167q2.781.8,5.3,1.547a15.391,15.391,0,0,1,4.109,1.811,3.407,3.407,0,0,1,1.592,3.006,3.09,3.09,0,0,1-1.681,2.829,10.07,10.07,0,0,1-4.951.972,15.788,15.788,0,0,1-6.495-1.282,13.406,13.406,0,0,1-2.451-1.413,4.353,4.353,0,0,0-5.6.535,4.456,4.456,0,0,0,.62,6.8c.3.216.614.424.933.623a22.993,22.993,0,0,0,6.008,2.653,24.851,24.851,0,0,0,6.8.927q7.426,0,11.755-3.623a12.134,12.134,0,0,0,4.334-9.813,11.355,11.355,0,0,0-1.592-6.318" transform="translate(130.141 10.151)" fill="#ff7d42"></path><path d="M55.757,8.425A22.163,22.163,0,0,0,44.445,5.508a21.738,21.738,0,0,0-11.226,2.96,22.4,22.4,0,0,0-8,7.911,21.281,21.281,0,0,0-2.96,11.135A21.745,21.745,0,0,0,25.22,38.74a22.147,22.147,0,0,0,8,8A21.712,21.712,0,0,0,44.445,49.7a21.889,21.889,0,0,0,11.312-2.963,22.155,22.155,0,0,0,8-8,21.772,21.772,0,0,0,2.96-11.226,21.532,21.532,0,0,0-2.96-11.178,21.917,21.917,0,0,0-8-7.911m-.574,25.72A11.317,11.317,0,0,1,50.855,38.7a12.444,12.444,0,0,1-6.409,1.635A12.26,12.26,0,0,1,38.124,38.7,11.317,11.317,0,0,1,33.8,34.145a13.89,13.89,0,0,1-1.547-6.631A13.36,13.36,0,0,1,33.8,20.977a11.477,11.477,0,0,1,4.328-4.464,12.26,12.26,0,0,1,6.321-1.635,12.2,12.2,0,0,1,6.364,1.635,11.906,11.906,0,0,1,4.328,4.464,13.1,13.1,0,0,1,1.592,6.537,13.957,13.957,0,0,1-1.547,6.631" transform="translate(41.037 10.153)" fill="#ff7d42"></path><path d="M141,22.234c-.011.023-.011.048-.023.074-3.8,7.575-5.821,12.142-9.918,20.232-2.849-6.04-3.893-8.576-6.762-14.789l-2.05-4.7c-3.759-7.888-8.209-14.235-16.254-18.119C95.981.094,85.275-1.461,74.791,2.2,64.645,5.753,56.638,14.334,49.8,22.4a121.233,121.233,0,0,0-9.495,12.918c-2.775,4.322-5.44,9.122-9.586,12.315a6.881,6.881,0,0,0-.842.779c-.074.04-.154.048-.225.094a12.06,12.06,0,0,1-1.681.876,14.465,14.465,0,0,1-5.7,1.1,12.417,12.417,0,0,1-6.409-1.635,11.362,11.362,0,0,1-4.328-4.507,13.661,13.661,0,0,1-1.547-6.586,13.6,13.6,0,0,1,1.547-6.628,11.476,11.476,0,0,1,4.328-4.464,12.444,12.444,0,0,1,6.409-1.635,14.467,14.467,0,0,1,5.7,1.106,11.582,11.582,0,0,1,1.678.876,4.633,4.633,0,0,0,5.789-.606,4.572,4.572,0,0,0-.523-6.935,20.6,20.6,0,0,0-3.409-1.908,22.513,22.513,0,0,0-9.236-1.9,22.434,22.434,0,0,0-11.357,2.917,21.444,21.444,0,0,0-8,7.911A21.925,21.925,0,0,0,0,37.757,21.991,21.991,0,0,0,2.917,48.983a21.348,21.348,0,0,0,8,7.953,22.4,22.4,0,0,0,11.357,2.917,22.557,22.557,0,0,0,9.236-1.9,20.546,20.546,0,0,0,3.412-1.911l.026-.023a3.108,3.108,0,0,0,.509-.287c7.373-5.676,11.363-13.825,16.7-21.233,5.482-7.609,12.475-16.541,20.7-21.258,5.6-3.213,11.931-3.617,18.176-3.008C100.9,11.98,108.942,17.576,113.013,26c.273.535.543,1.075.779,1.629A200.21,200.21,0,0,1,126.714,56.51a4.762,4.762,0,0,0,9.048,0c1.712-4.7,3.119-8.411,4.447-11.707.006-.017,7.754-19.219,15.213-27.682,4.294-4.6,11.92-8.073,20.1-8.073a22.561,22.561,0,0,1,13.316,4.183,46.147,46.147,0,0,1,5.133,3.671c1.956,1.567,4.316,2.477,6.355,1a4.55,4.55,0,0,0,1-6.355c-.4-.54-7.348-11.5-25.979-11.5h-.034s-21.8-2-34.313,22.194" transform="translate(0 -0.001)" fill="#ff7d42"></path></g></g><path d="M32.109,24.637a41.956,41.956,0,0,1-5.634-.385C9.366,21.881.84,6.541.485,5.889A3.984,3.984,0,0,1,7.479,2.071c.092.166,7.052,12.481,20.078,14.287A29.315,29.315,0,0,0,53.629,7.193,3.984,3.984,0,1,1,59.4,12.682,36.62,36.62,0,0,1,32.109,24.637Z" transform="matrix(0.998, -0.07, 0.07, 0.998, 470.119, 1482.484)" fill="#ff7d42"></path><path d="M3.98,24.626A3.982,3.982,0,0,1,.653,18.462,44.545,44.545,0,0,1,31.322.372C41.715-.794,56.854.224,70.011,11.693A3.984,3.984,0,1,1,64.774,17.7C53.8,8.134,41.015,7.3,32.221,8.289,15.943,10.158,7.391,22.721,7.306,22.848A3.993,3.993,0,0,1,3.98,24.626Z" transform="matrix(0.998, 0.07, -0.07, 0.998, 556.288, 1403.454)" fill="#ff7d42"></path></g></g></svg>