<svg xmlns="http://www.w3.org/2000/svg" xmlns:xlink="http://www.w3.org/1999/xlink" width="829.004" height="150.775" viewBox="0 0 829.004 150.775"><defs><clipPath id="clip-path"><rect id="Rectangle_66" data-name="Rectangle 66" width="51.626" height="74.301" fill="#fe89c9"></rect></clipPath><clipPath id="clip-path-2"><rect id="Rectangle_89" data-name="Rectangle 89" width="97.841" height="79.178" fill="#c7a8eb"></rect></clipPath><clipPath id="clip-path-3"><rect id="Rectangle_108" data-name="Rectangle 108" width="92.154" height="111.547" fill="#ff876e"></rect></clipPath></defs><g id="FG_Logo" data-name="FG Logo" transform="translate(-1042.059 -324.886)"><g id="Group_6877" data-name="Group 6877" transform="translate(1402.221 370.745)"><path id="Path_820" data-name="Path 820" d="M689.428,106.358a1.391,1.391,0,0,1-1.063.834q-2.457.652-4.972,1.065c-1.262.207-1.6-.878-2.24-1.79-.849-1.21-1.7-2.418-2.539-3.637-1.584-2.308-2.618-4.357-4.2-6.666-.668-1.041-1.459-1.109-1.433.153-.347,5.175-.117,8.879-.13,13.893a.712.712,0,0,1-.538.69l-4.675.883a.59.59,0,0,1-.724-.567c-.173-4.373-.05-25.828.173-29.651a.677.677,0,0,1,.535-.622c2.022-.395,4.072-.714,6.181-1.034a.586.586,0,0,1,.6.288,148.86,148.86,0,0,0,8.316,12.873.65.65,0,0,0,1.146-.427c.239-4.708.474-9.38.712-14.092a.707.707,0,0,1,.554-.655c2.1-.413,2.9-.684,5.274-1.081a.593.593,0,0,1,.645.668c-.349,4.776-.745,9.549-1.008,14.32-.153,2.8-.261,5.613-.358,8.42q-.07,2.05-.14,4.1A7.121,7.121,0,0,1,689.428,106.358Z" transform="translate(-638.741 -61.179)" fill="#fb84ee"></path><path id="Path_821" data-name="Path 821" d="M717.672,64.021l-.492,4.617a1.341,1.341,0,0,1-1.1,1.157q-36,6.254-71.961,12.4a1.136,1.136,0,0,1-1.375-1.135l.155-4.465a1.318,1.318,0,0,1,1.1-1.22c24.07-4.157,48.107-8.344,72.3-12.594A1.141,1.141,0,0,1,717.672,64.021Z" transform="translate(-641.443 -62.755)" fill="#fb84ee"></path><path id="Path_822" data-name="Path 822" d="M690.688,105.873c0-.393-.006-.72-.006-.739.352-9.383.768-16.623,1.384-25.834.039-.591.082-1.182.126-1.785a1.853,1.853,0,0,1,1.379-1.687,127.892,127.892,0,0,1,13.366-2.315,4,4,0,0,1,2.343.473c1.521.8,1.6,2.844,1.636,4.4q.08,3.245-.025,6.49-.136,4.222-.586,8.426a36.209,36.209,0,0,1-1,6.447,6.945,6.945,0,0,1-1.3,2.748,6.6,6.6,0,0,1-2.045,1.481,22.8,22.8,0,0,1-5.6,1.417c-3.065.581-5.483,1.2-8.533,1.568A1.054,1.054,0,0,1,690.688,105.873ZM699.922,81.1a.84.84,0,0,0-.62.764c-.492,5.921-1.134,16.566-.964,16.846.088.144.345.057.455.027a20.53,20.53,0,0,0,3.033-.769,3.726,3.726,0,0,0,1.915-3.281c.2-2.17.222-2.157.422-4.328.2-2.211.544-5.131.561-8.477a2.782,2.782,0,0,0-.226-1.22C704.085,80.085,700.924,80.853,699.922,81.1Z" transform="translate(-636.066 -61.551)" fill="#fb84ee"></path><path id="Path_823" data-name="Path 823" d="M647.368,101.277c.976-2.922,1.809-5.88,2.812-8.8s2.141-5.8,3.215-8.706a.7.7,0,0,1,.52-.531,29.31,29.31,0,0,1,6.116-1.019c.631-.062.6.673.694,1.088,1.087,4.915,2.085,9.855,3.155,14.779.573,2.634,1.211,5.25,1.816,7.877.41,1.779.664,2.869,1.057,4.644.047.212.319,1.048-.5,1.23-.393.087-.648.125-.737.139-1.519.239-1.743.317-3.513.521-1.17.252-1.216-.291-1.352-.885-.084-.376-.176-.753-.273-1.145a.788.788,0,0,0-.9-.576c-2.349.35-4.655.9-6.992,1.286a.863.863,0,0,0-.7.617l-.447,1.709a1.033,1.033,0,0,1-.821.862l-7.2,1.122a.442.442,0,0,1-.512-.569Zm8.355-3.015c-.844,1.959-1.555,3.973-2.325,6.022-.426,1.132.312,1.236,1,1.117,1.263-.22,2.472-.452,3.709-.666,1.064-.185.855-.615.754-1.1a54.549,54.549,0,0,0-1.388-5.372C657.041,96.922,656.44,96.6,655.723,98.262Z" transform="translate(-641.438 -60.572)" fill="#fb84ee"></path><path id="Path_824" data-name="Path 824" d="M715.8,104.96c-.929.161-2.054.376-2.982.547-2.062.379-3,.559-5.062.934-1.912.348-3.828.675-5.74,1.026-1.6.294-3.192.615-4.788.912-1.236.23-2.476.44-3.715.661-1.423.253-2.844.509-4.266.76-1.549.273-3.1.534-4.649.813-1.7.3-3.4.628-5.1.938-1.835.332-3.672.655-5.506.989-1.573.286-3.144.589-4.717.872-1.16.209-2.325.389-3.485.6-1.912.343-3.822.7-5.735,1.042-1.573.279-3.152.53-4.726.813-1.6.287-3.19.608-4.788.892-2.351.415-4.706.806-7.06,1.216l-.014,0a2.117,2.117,0,0,0-1.763,1.9c0,.052-.005.1-.006.156-.042,1.256-.073,1.981-.1,3.237,0,0-.024.308-.022.463.018,1.157.566,1.345,1.135,1.3.672-.11,1.319-.215,1.951-.329,2.5-.454,4.619-.9,7.12-1.346,1.678-.3,3.358-.571,5.038-.856q2.364-.4,4.731-.811c1.008-.175,2.014-.35,3.019-.537,1.106-.206,2.208-.441,3.316-.636,1.447-.255,2.9-.467,4.346-.725,2.5-.448,5-.926,7.506-1.377,1.6-.288,3.2-.539,4.8-.827,2.815-.5,5.627-1.03,8.442-1.534,2.064-.37,4.13-.71,6.192-1.081,3.278-.591,6.555-1.2,9.834-1.8,1.985-.359,3.976-.69,5.963-1.038l.419-.076a2.19,2.19,0,0,0,1.785-1.9l.323-3.214c-.061.606.135-.908.135-.908C717.6,104.543,715.874,104.953,715.8,104.96Z" transform="translate(-641.574 -58.028)" fill="#fb84ee"></path></g><g id="Group_6663" data-name="Group 6663" transform="translate(1172.379 365.363)"><g id="Group_6802" data-name="Group 6802" transform="translate(0 0)"><path id="Path_28" data-name="Path 28" d="M0,2.4V21.04a2.64,2.64,0,0,0,2.652,2.628H4.021A2.641,2.641,0,0,1,6.673,26.3V46.928a2.64,2.64,0,0,1-2.652,2.628H2.657A2.641,2.641,0,0,0,0,52.184V71.665a2.64,2.64,0,0,0,2.652,2.628H48.141a2.64,2.64,0,0,0,2.652-2.628V52.184c0-1.451-1.1-2.344-2.652-2.628s-2.652-1.176-2.652-2.628V34.33a35.389,35.389,0,0,1,.17-5.648c.467-1.2,1.126-4.294,6.218-4.165,5.063-.075,6.711,2.589,6.912,4.7.151,1.584.072,16.923,0,16.972,0,.141.138,2.431-1.2,2.847-.563.4-2.357.369-2.437,2.107-.05.807.034,2.729,0,4.467.022.067.119,16.055.119,16.055a2.64,2.64,0,0,0,2.652,2.628h42.768a2.639,2.639,0,0,0,2.652-2.628V52.184a2.64,2.64,0,0,0-2.652-2.628H99.438a2.64,2.64,0,0,1-2.652-2.628V27.052s0-5.4-.088-10.888S92.01,1.406,78.107.262C62.831-.994,56.762,2.445,47.609,6.746c-.214.162-.2-1.6-.137-3.245A2.637,2.637,0,0,0,44.824.78S2.636.722,1.227.751,0,2.4,0,2.4Z" transform="translate(0.004 0)" fill="#fbc44a"></path></g></g><g id="Group_6804" data-name="Group 6804" transform="translate(1283.994 365.363)"><g id="Group_6802-2" data-name="Group 6802" transform="translate(0 0)"><path id="Path_28-2" data-name="Path 28" d="M0,2.4V21.04a2.64,2.64,0,0,0,2.652,2.628H4.021A2.641,2.641,0,0,1,6.673,26.3V46.928a2.64,2.64,0,0,1-2.652,2.628H2.657A2.641,2.641,0,0,0,0,52.184V71.665a2.64,2.64,0,0,0,2.652,2.628H48.141a2.64,2.64,0,0,0,2.652-2.628V52.184c0-1.451-1.1-2.344-2.652-2.628s-2.652-1.176-2.652-2.628V34.33a35.389,35.389,0,0,1,.17-5.648c.467-1.2,1.126-4.294,6.218-4.165,5.063-.075,6.711,2.589,6.912,4.7.151,1.584.072,16.923,0,16.972,0,.141.138,2.431-1.2,2.847-.563.4-2.357.369-2.437,2.107-.05.807.034,2.729,0,4.467.022.067.119,16.055.119,16.055a2.64,2.64,0,0,0,2.652,2.628h42.768a2.639,2.639,0,0,0,2.652-2.628V52.184a2.64,2.64,0,0,0-2.652-2.628H99.438a2.64,2.64,0,0,1-2.652-2.628V27.052s0-5.4-.088-10.888S92.01,1.406,78.107.262C62.831-.994,56.762,2.445,47.609,6.746c-.214.162-.2-1.6-.137-3.245A2.637,2.637,0,0,0,44.824.78S2.636.722,1.227.751,0,2.4,0,2.4Z" transform="translate(0.004 0)" fill="#8bdbff"></path></g></g><path id="Path_742" data-name="Path 742" d="M21.408,0C33.232,0,42.817,8.348,42.817,18.646S33.232,37.292,21.408,37.292,0,28.944,0,18.646,9.585,0,21.408,0Z" transform="translate(1115.54 325.371)" fill="#fe89c9"></path><g id="Group_6660" data-name="Group 6660" transform="translate(1112.49 365.991)"><g id="Group_12" data-name="Group 12" transform="translate(0 0)" clip-path="url(#clip-path)"><path id="Path_31" data-name="Path 31" d="M3.34,0H44.188a2.4,2.4,0,0,1,2.4,2.4V47.78a2.4,2.4,0,0,0,2.4,2.4h.239a2.4,2.4,0,0,1,2.4,2.4V71.9a2.4,2.4,0,0,1-2.4,2.4H2.4A2.4,2.4,0,0,1,0,71.9V52.579a2.4,2.4,0,0,1,2.4-2.4H3.837a2.4,2.4,0,0,0,2.4-2.4V27.8a2.4,2.4,0,0,0-2.4-2.4h-.5A2.4,2.4,0,0,1,.94,23V2.4A2.4,2.4,0,0,1,3.34,0Z" transform="translate(0 -0.001)" fill="#fe89c9"></path></g></g><path id="Subtraction_2" data-name="Subtraction 2" d="M55.6,114.9H4.107A4.111,4.111,0,0,1,0,110.8V95.826a4.112,4.112,0,0,1,4.107-4.107,4.11,4.11,0,0,0,4.105-4.1V70.4a4.11,4.11,0,0,0-4.105-4.1A4.111,4.111,0,0,1,0,62.192V46.028a4.112,4.112,0,0,1,4.107-4.108h.175a4.119,4.119,0,0,0,4.1-3.83,74.945,74.945,0,0,1,2.462-14.846c1.893-6.652,4.644-11.42,8.179-14.173A43,43,0,0,1,30.754,2.388,41.693,41.693,0,0,1,45.25,0,80.364,80.364,0,0,1,62.977,2.261l3.566,1.293a3.877,3.877,0,0,1,2.033,2.184V19.2a4.1,4.1,0,0,1-4.083,4.107h-.05c-.177,0-.357,0-.54,0a26.24,26.24,0,0,0-7.27.862c-2.644.779-4.268,2.07-4.827,3.836a44.169,44.169,0,0,0-1.491,9.568,4.163,4.163,0,0,0,1.155,3.091,4.049,4.049,0,0,0,2.95,1.26h2.416a4.112,4.112,0,0,1,4.107,4.108V62.192A4.111,4.111,0,0,1,56.836,66.3H54.445a4.111,4.111,0,0,0-4.107,4.1V87.615a4.111,4.111,0,0,0,4.107,4.1H55.6a4.11,4.11,0,0,1,4.1,4.107V110.8A4.109,4.109,0,0,1,55.6,114.9Z" transform="translate(1042.559 325.386)" fill="#6ed975" stroke="rgba(0,0,0,0)" stroke-miterlimit="10" stroke-width="1"></path><g id="Group_6662" data-name="Group 6662" transform="translate(1673.474 361.112)"><g id="Group_133" data-name="Group 133" transform="translate(0 0)" clip-path="url(#clip-path-2)"><path id="Path_84" data-name="Path 84" d="M54.877,7.689l.163-1.951a3.2,3.2,0,0,1,3.187-2.928h30.19a3.2,3.2,0,0,1,3.2,3.2V52.662a3.2,3.2,0,0,0,2.924,3.185l.377.033a3.2,3.2,0,0,1,2.924,3.185V74.872a3.2,3.2,0,0,1-3.2,3.2H58.285A3.2,3.2,0,0,1,55.1,75.19a1.583,1.583,0,0,0-2.3-1.257l-.134.074c-23.113,12.9-47.383.63-51.86-25.459A48.73,48.73,0,0,1,5.53,16.88C14.587-.387,36.338-5.186,52.407,6.119c.665.468,1.376.878,2.47,1.57M52.254,39.017c0-4.067-1.043-5.528-2.167-7.963a4.343,4.343,0,0,0-7.877.14,18.9,18.9,0,0,0,.115,16.056,4.958,4.958,0,0,0,3.863,2.376,5.48,5.48,0,0,0,3.966-2.637c1.119-2.431,2.1-4.139,2.1-7.971" transform="translate(0 0)" fill="#c7a8eb"></path></g></g><g id="Group_6665" data-name="Group 6665" transform="translate(1594.917 363.91)"><g id="Group_6805" data-name="Group 6805" transform="translate(0 0)"><path id="Path_39" data-name="Path 39" d="M53.455,74.01a2.949,2.949,0,0,1-2.8,2.956c-.093,0-.186.006-.279.006-15.489.023-30.976-.034-46.465.064C1.162,77.054-.1,76.42.005,73.376.178,68.1.1,62.812.072,57.347A2.954,2.954,0,0,1,2.761,54.4l.914-.082A2.949,2.949,0,0,0,6.35,51.375V26.061a2.952,2.952,0,0,0-2.624-2.933l-.745-.083A2.951,2.951,0,0,1,.359,20.111V3.747A2.95,2.95,0,0,1,3.309.8H40.965a2.949,2.949,0,0,1,2.947,2.79l0,.086c-.1,3.365,2.694,3.566,4.563,2.1C54.512,1.029,61.4.391,69.221,1a2.954,2.954,0,0,1,2.7,2.95V24.19A2.957,2.957,0,0,1,69.452,27.1c-5.472.915-10.789.01-15.735,1.687-3.648,1.251-9.029,2.912-9.8,11.8-.261,2.96.092,7.065,0,9.768-.009,2.8,1.427,3.892,3.1,3.892H50.5A2.951,2.951,0,0,1,53.455,57.2Z" transform="translate(0 -0.796)" fill="#a6ebcb"></path></g></g><g id="Group_6668" data-name="Group 6668" transform="translate(1772.689 362.52)"><g id="Group_6806" data-name="Group 6806" transform="translate(0 0)"><path id="Path_60" data-name="Path 60" d="M57.422,90.8h2.4a2.853,2.853,0,0,1,2.67,2.846l.293,16.644a2.851,2.851,0,0,1-2.851,2.851h-46.2a2.851,2.851,0,0,1-2.851-2.851V93.857a2.675,2.675,0,0,1,2.347-2.792c.838-.1,3.384-.267,4.146-.265,10.806.016,11-.758,13.583-9.63a5.916,5.916,0,0,0-.225-4.318Q19.01,51.826,7.014,26.924c-.49-1.018-1.118-2.48-2.44-2.457C-.36,24.456,0,21.53.028,18.319.071,13.225.052,8.131.045,2.875A2.868,2.868,0,0,1,2.9,0H48.062a2.851,2.851,0,0,1,2.849,2.839c.028,6.434.127,12.9-.211,19.338,0,1.805-2.126.889-3.6,1.69-1.307.709-1.1,2.14-.4,4.156q2.08,4.674,4.522,10.168a2.861,2.861,0,0,0,5.073.3c1.995-3.384,3.569-6.655,5.535-9.992,1.557-2.289.68-4.49-2.006-4.63-1.483-.115-2.5-.2-2.5-1.69V2.851A2.851,2.851,0,0,1,60.177,0H95.535a2.851,2.851,0,0,1,2.851,2.851v18.2a2.859,2.859,0,0,1-2.555,2.821c-3.947.458-5.23,4.407-7.15,7.664Q72.321,59.272,55.9,86.977c-.615,1.044-2.248,3.148-.281,3.823" transform="translate(-0.012 0)" fill="#69a4ff"></path></g></g><g id="Group_6667" data-name="Group 6667" transform="translate(1494.49 362.52)"><g id="Group_248" data-name="Group 248" transform="translate(0 0)" clip-path="url(#clip-path-3)"><path id="Path_94" data-name="Path 94" d="M90.575,1.366H52.144a1.594,1.594,0,0,0-1.589,1.589A1.837,1.837,0,0,1,47.734,4.51c-8.92-5.673-21.379-6.084-30.112-.725A35.039,35.039,0,0,0,2.241,24.68a58.791,58.791,0,0,0,.09,32.466c3.028,11,9.653,17.875,19.7,20.444C31.817,80.1,40.4,78.613,47.6,73.172a1.838,1.838,0,0,1,2.928,1.485c.009,1.9-.006,3.755-.091,5.611a31.212,31.212,0,0,1-1.119,6.609,4.86,4.86,0,0,1-5.335,4.112c-2.779-.06-4.326-1.439-5.006-4.447a8.3,8.3,0,0,0-.38-1.3A4.279,4.279,0,0,1,38.33,84a1.6,1.6,0,0,0-1.579-1.389H7.318A1.594,1.594,0,0,0,5.727,84.2l-.01,3.525c-.01,3.525-.01,6.3.07,10.28a5.072,5.072,0,0,0,1.6,3.175A31.032,31.032,0,0,0,17.679,107.3,68.214,68.214,0,0,0,41.1,111.5c.93.021,1.828.04,2.718.04a56.455,56.455,0,0,0,18.457-2.715c9.932-3.378,16.488-9.963,19.466-19.575A55.511,55.511,0,0,0,83.76,72.722V26.7c0-.98,0-1.988.05-2.958.06-1.308.639-1.615,1.489-1.689,1.322-.11,2.658-.239,4.017-.36l.352-.032a2.74,2.74,0,0,0,2.486-2.727V2.955a1.583,1.583,0,0,0-1.579-1.589M45.031,28.3a9.1,9.1,0,0,1,3.946,7.907c-.034.58-.025,1.162-.018,1.727,0,.254.009.508.009.753-.009.417,0,.825.009,1.244.032,2.078.065,4.05-1.163,5.752-2.291,3.177-4.558,4.387-7.587,4.019a4.784,4.784,0,0,1-4.412-3.463,23.809,23.809,0,0,1,.1-15.492,5.555,5.555,0,0,1,3.729-3.561,5.931,5.931,0,0,1,1.6-.22A6.075,6.075,0,0,1,45.028,28.3" transform="translate(0 0)" fill="#ff876e"></path></g></g></g></svg>