<svg xmlns="http://www.w3.org/2000/svg" width="182.658" height="182.658" viewBox="0 0 182.658 182.658"><g id="Group_10655" data-name="Group 10655" transform="translate(-989.392 -4394.051)"><circle id="Ellipse_187" data-name="Ellipse 187" cx="64.826" cy="64.826" r="64.826" transform="translate(989.392 4477.39) rotate(-40)" fill="#fff7f2"></circle><g id="Group_9546" data-name="Group 9546" transform="translate(1010.85 4481.952) rotate(-40)"><g id="Group_561" data-name="Group 561" transform="translate(2.987 0)"><path id="Path_431" data-name="Path 431" d="M18.59,32.223c-.632-.588-1.244-1.224-1.926-1.833a27.184,27.184,0,0,0-2.392-2c-.634-.408-1.31-.693-2.257.368a2.755,2.755,0,0,0-.272,3.228c.6.65,1.181,1.168,1.825,1.743.694.6,1.247,1.045,1.965,1.663a4.518,4.518,0,0,1-.544.762,4.876,4.876,0,0,1-.794.789c-.819-.709-1.577-1.385-2.386-2.107L8.046,31.478c-1.125-1-2.24-2.067-3.105-2.953a6.086,6.086,0,0,1,.782-1.207,2.371,2.371,0,0,1,.445-.4c1.137,1.014,2.2,2.033,3.277,3.016a4.814,4.814,0,0,1,1.221-2.791c1.566-1.756,3.363-1.786,5.132-.207,1.376,1.228,2.653,2.391,4.051,3.774a4.933,4.933,0,0,1-.657.889c-.2.227-.385.406-.6.622" transform="translate(-4.941 -10.198)" fill="#ff8052"></path><path id="Path_432" data-name="Path 432" d="M35.192,15.9c.865,1.295,1.7,2.572,2.063,3.242a4.514,4.514,0,0,1-1.037.978,3.5,3.5,0,0,1-.534.3l-.367-.549a16.358,16.358,0,0,1-2.29,2.119c-2.337,1.56-3.844,1.04-4.728-.283-.9-1.351-.675-3.356,1.893-4.968a14.661,14.661,0,0,1,2.355-1.105c-.742-.99-1.883-1.083-3.334-.115a5.829,5.829,0,0,0-1.674,2.034,3.012,3.012,0,0,1-1.611-.8,5.654,5.654,0,0,1,2.317-2.809c3.829-2.557,5.667.043,6.945,1.957m-.9,2.4c-.212-.348-.446-.7-.681-1.051a5.707,5.707,0,0,0-2.3.908c-1.521,1.015-1.637,1.968-1.308,2.461.377.563,1.418.3,2.4-.363a6.674,6.674,0,0,0,1.89-1.954" transform="translate(-13.241 -5.091)" fill="#ff8052"></path><path id="Path_433" data-name="Path 433" d="M53.276,7.067a4.432,4.432,0,0,1-2.913,6.023,4.365,4.365,0,0,1-2.144.222c.376,1.088.764,2.207,1.11,3.467a3.717,3.717,0,0,1-.921.444,2.645,2.645,0,0,1-.924.177c-.236-.581-.354-.97-.481-1.338-1.2-3.456-2.207-6.688-3.432-10.384a4.072,4.072,0,0,1,1.107-.527,3.392,3.392,0,0,1,.694-.169l.161.464a6.632,6.632,0,0,1,2.176-1.219c3.2-1.107,4.831.71,5.567,2.838m-1.851.551c-.449-1.3-1.575-2.016-3.559-1.33a4.568,4.568,0,0,0-1.646,1.2c.437,1.264.852,2.464,1.268,3.717a5.2,5.2,0,0,0,2.237-.057,2.626,2.626,0,0,0,1.7-3.526" transform="translate(-20.216 -1.54)" fill="#ff8052"></path><path id="Path_434" data-name="Path 434" d="M73.939,4.178a4.433,4.433,0,0,1-4.346,5.09,4.366,4.366,0,0,1-2.131-.328c.089,1.148.18,2.33.2,3.637a3.714,3.714,0,0,1-1,.2,2.645,2.645,0,0,1-.939-.063c-.082-.622-.1-1.028-.126-1.417-.281-3.647-.44-7.031-.688-10.917a4.083,4.083,0,0,1,1.2-.229,3.362,3.362,0,0,1,.714.013l.037.489A6.649,6.649,0,0,1,69.272.021c3.377-.261,4.494,1.912,4.667,4.157m-1.931.064C71.9,2.875,71,1.892,68.9,2.053a4.554,4.554,0,0,0-1.9.741c.1,1.334.2,2.6.284,3.918a5.182,5.182,0,0,0,2.179.511,2.626,2.626,0,0,0,2.538-2.981" transform="translate(-28.651 0)" fill="#ff8052"></path><path id="Path_435" data-name="Path 435" d="M95.061,2.035c-1.355,1.907-2.733,3.844-4.1,5.714-1.329,1.86-2.67,3.683-3.99,5.39A4.386,4.386,0,0,1,86,13a3.831,3.831,0,0,1-1.114-.406c.579-.739,1.139-1.464,1.646-2.182.608-.8,1.154-1.547,1.539-2.166-.366-1.028-.888-2.634-1.4-4.2C86.24,2.71,85.8,1.411,85.482.408a5.616,5.616,0,0,1,1.469.056c.253.028.536.079.786.123a30.325,30.325,0,0,0,.877,2.977c.336,1.005.695,1.981.959,2.716.411-.476.983-1.268,1.577-2.091.685-.944,1.379-1.937,1.826-2.614a7.024,7.024,0,0,1,.872.122,9.776,9.776,0,0,1,1.212.337" transform="translate(-36.553 -0.15)" fill="#ff8052"></path><path id="Path_436" data-name="Path 436" d="M113.725,14.239a4.651,4.651,0,0,1,6.839-1.561,4.753,4.753,0,0,1,2.166,2.987,3.466,3.466,0,0,1-1.54.775,5.281,5.281,0,0,0-1.718-2.108,2.944,2.944,0,0,0-4.141,1.008c-.735,1.178-.611,2.771,1.256,3.936a5.155,5.155,0,0,0,2.7.628,3.714,3.714,0,0,1-.352,1.875,7.121,7.121,0,0,1-3.857-1.109c-2.987-1.863-2.538-4.535-1.355-6.431" transform="translate(-47.599 -4.658)" fill="#ff8052"></path><path id="Path_437" data-name="Path 437" d="M125.4,26.235c.394-.487.68-.777.952-1.079,2.439-2.7,4.784-5.146,7.432-8a4.11,4.11,0,0,1,1,.716,3.4,3.4,0,0,1,.482.527c-1.955,2.113-3.519,3.87-5.29,5.807-.989,1.069-1.915,2.171-3.127,3.336a3.177,3.177,0,0,1-.845-.58,2.641,2.641,0,0,1-.6-.725" transform="translate(-52.573 -6.783)" fill="#ff8052"></path><path id="Path_438" data-name="Path 438" d="M131.436,33.212c.373-.371.627-.57.843-.759,1.812-1.58,3.679-3.1,5.716-4.809a4.067,4.067,0,0,1,.869.816,3.642,3.642,0,0,1,.463.608c-1.236,1.056-2.259,1.97-3.292,2.872s-2.129,1.835-3.318,2.739a3.7,3.7,0,0,1-.791-.726,3.566,3.566,0,0,1-.49-.741m7.931-7.034a1.272,1.272,0,0,1,1.976.074.92.92,0,0,1-.059,1.4,1.359,1.359,0,0,1-1.936.048,1.013,1.013,0,0,1,.019-1.523" transform="translate(-54.961 -10.179)" fill="#ff8052"></path><path id="Path_439" data-name="Path 439" d="M143.911,46.085c-.82-1.265-1.731-2.753-2.422-3.9a2.376,2.376,0,0,0-.319,3.071,6.028,6.028,0,0,0,1.979,1.8,3.111,3.111,0,0,1-.881,1.576,5.838,5.838,0,0,1-2.7-2.437,4.376,4.376,0,0,1,1.548-6.264c2.366-1.387,5.292-1.18,6.731,1.273a4.3,4.3,0,0,1-1.628,6.193,6.422,6.422,0,0,1-1.021.5,14.207,14.207,0,0,1-1.282-1.819m-.822-4.816c.742,1.233,1.868,3.085,2.5,4.1a2.184,2.184,0,0,0,.654-3.17,2.4,2.4,0,0,0-3.158-.935" transform="translate(-57.892 -15.453)" fill="#ff8052"></path><path id="Path_440" data-name="Path 440" d="M147.291,65.151c.944-.267,1.932-.51,2.849-.752.814-.23,2.036-.576,2.767-.852.906-.343,1.013-1.271.76-2.167a2.6,2.6,0,0,0-3.378-1.807c-1.129.3-2.683.776-3.994,1.181a5.934,5.934,0,0,1-.386-.929,7.72,7.72,0,0,1-.2-.963c1.119-.334,2.947-.9,4.088-1.225,1.206-.34,3.116-.863,4.354-1.089a4.243,4.243,0,0,1,.46,1.066,2.028,2.028,0,0,1,.134.788l-.749.212a5.3,5.3,0,0,1,1.835,2.947c.534,1.89-.406,3.422-2.719,4.075-1.727.488-3.4.909-5.164,1.336a4.033,4.033,0,0,1-.509-1.053,2.9,2.9,0,0,1-.146-.768" transform="translate(-60.604 -22.36)" fill="#ff8052"></path><path id="Path_441" data-name="Path 441" d="M149.834,80.02a5.3,5.3,0,0,1,.742-.082c1.826-.076,3.741-.053,5.583-.147l.677-.028c-.059-.608-.129-1.485-.219-2.43.219-.009.438-.035.676-.028a4.469,4.469,0,0,1,1.377.112c.078.657.138,1.7.163,2.28.507-.038,1.25-.086,2.267-.077a4.148,4.148,0,0,1,.59,1.161,3.8,3.8,0,0,1,.221.838c-.4.051-.76.065-1.064.078-.473.02-1.371.04-1.879.044.045.659.088,1.69.157,2.534a2.369,2.369,0,0,1-.725.08,3.349,3.349,0,0,1-1.26-.151c-.092-.606-.113-1.486-.134-2.01a2.982,2.982,0,0,0-.033-.388c-.407,0-.8.033-1.2.05-1.775.074-3.72.154-5.768.2a2.95,2.95,0,0,1-.221-1.244,3.96,3.96,0,0,1,.051-.8" transform="translate(-62.216 -30.566)" fill="#ff8052"></path><path id="Path_442" data-name="Path 442" d="M60.48,54.729a1.92,1.92,0,1,1-1.92-1.92,1.92,1.92,0,0,1,1.92,1.92" transform="translate(-25.384 -20.882)" fill="#ff8052"></path><path id="Path_443" data-name="Path 443" d="M114.052,79.106a1.92,1.92,0,1,1-1.92-1.92,1.92,1.92,0,0,1,1.92,1.92" transform="translate(-46.568 -30.521)" fill="#ff8052"></path></g><path id="Path_444" data-name="Path 444" d="M7.3,56.349S-1.715,93.87,28.475,110.011c31.252,16.71,55.2-2.332,64.822-25.068" transform="translate(-2.388 -22.282)" fill="none" stroke="#ff8052" stroke-linecap="round" stroke-miterlimit="10" stroke-width="2"></path><path id="Path_445" data-name="Path 445" d="M1,58.829l4.825-3.508,1.929,4.641" transform="translate(-0.395 -21.875)" fill="none" stroke="#ff8052" stroke-linecap="round" stroke-linejoin="round" stroke-width="2"></path><path id="Path_446" data-name="Path 446" d="M149.852,108.608l-2.017-6.335-4.771,2.383" transform="translate(-56.572 -40.442)" fill="none" stroke="#ff8052" stroke-linecap="round" stroke-linejoin="round" stroke-width="2"></path><path id="Path_447" data-name="Path 447" d="M0,0H102.682V94.683H0Z" transform="translate(0 0)" fill="none"></path></g></g></svg>