<svg xmlns="http://www.w3.org/2000/svg" width="1115" height="757" viewBox="0 0 1115 757" fill="none"><path d="M0 68.6841H160.211C205.563 68.6841 249.058 86.7001 281.126 118.769C313.195 150.838 331.211 194.332 331.211 239.684V400.658H147C108.013 400.658 70.6231 385.171 43.0553 357.603C15.4875 330.035 0 292.645 0 253.658V68.6841Z" fill="#F2F0E9"></path><path d="M377.011 2.13731e-09H610.919C641.636 -0.00013132 672.053 6.04998 700.432 17.8049C728.811 29.5598 754.597 46.7893 776.318 68.5097C798.038 90.2301 815.268 116.016 827.023 144.395C838.778 172.774 844.828 203.191 844.828 233.908V234.671C844.828 265.388 838.778 295.805 827.023 324.184C815.268 352.563 798.038 378.349 776.318 400.07C754.597 421.79 728.811 439.02 700.432 450.775C672.053 462.53 641.636 468.58 610.919 468.58C580.202 468.58 549.785 462.53 521.406 450.775C493.027 439.02 467.241 421.79 445.521 400.07C423.8 378.349 406.571 352.563 394.816 324.184C383.061 295.805 377.011 265.388 377.011 234.671V2.13731e-09Z" fill="#F2F0E9"></path><path d="M960.564 387.685H960.796C1001.43 387.686 1040.41 403.831 1069.14 432.567C1097.88 461.303 1114.02 500.278 1114.02 540.916C1114.02 583.666 1097.04 624.666 1066.81 654.895C1036.58 685.124 995.582 702.107 952.832 702.107H800.364V547.885C800.364 505.397 817.242 464.65 847.286 434.607C877.329 404.563 918.076 387.685 960.564 387.685Z" fill="#F2F0E9"></path><path d="M994.668 125.921C1023.94 125.921 1052.02 137.551 1072.72 158.253C1093.42 178.954 1105.05 207.031 1105.05 236.308V342.658H1000.15C985.569 342.658 971.125 339.785 957.649 334.204C944.173 328.622 931.928 320.44 921.614 310.126C911.3 299.812 903.118 287.568 897.536 274.092C891.954 260.616 889.081 246.172 889.081 231.586V231.508C889.081 203.504 900.205 176.648 920.007 156.847C939.808 137.045 966.664 125.921 994.668 125.921Z" fill="#F2F0E9"></path><path d="M433.224 457.896V611.296C433.224 649.752 417.947 686.634 390.754 713.826C363.562 741.019 326.68 756.296 288.224 756.296H133.774V603.896C133.774 565.174 149.156 528.039 176.536 500.658C203.917 473.278 241.052 457.896 279.774 457.896H433.224Z" fill="#F2F0E9"></path><path d="M610.91 756.292C673.289 756.292 723.858 705.723 723.858 643.344C723.858 580.965 673.289 530.396 610.91 530.396C548.531 530.396 497.962 580.965 497.962 643.344C497.962 705.723 548.531 756.292 610.91 756.292Z" fill="#F2F0E9"></path><path d="M573.466 237.192V234.992H577.316C577.844 234.992 578.306 234.889 578.702 234.684C579.112 234.464 579.435 234.163 579.67 233.782C579.904 233.386 580.022 232.924 580.022 232.396C580.022 231.868 579.904 231.413 579.67 231.032C579.435 230.636 579.112 230.335 578.702 230.13C578.306 229.91 577.844 229.8 577.316 229.8H573.466V227.6H577.448C578.416 227.6 579.281 227.798 580.044 228.194C580.821 228.59 581.43 229.147 581.87 229.866C582.324 230.584 582.552 231.428 582.552 232.396C582.552 233.364 582.324 234.207 581.87 234.926C581.43 235.644 580.821 236.202 580.044 236.598C579.281 236.994 578.416 237.192 577.448 237.192H573.466ZM571.728 243V227.6H574.258V243H571.728Z" fill="black"></path><path d="M588.56 243.22C587.607 243.22 586.741 242.978 585.964 242.494C585.201 242.01 584.593 241.357 584.138 240.536C583.698 239.7 583.478 238.768 583.478 237.742C583.478 236.7 583.698 235.769 584.138 234.948C584.593 234.112 585.201 233.452 585.964 232.968C586.741 232.469 587.607 232.22 588.56 232.22C589.367 232.22 590.078 232.396 590.694 232.748C591.325 233.085 591.823 233.554 592.19 234.156C592.557 234.757 592.74 235.439 592.74 236.202V239.238C592.74 240 592.557 240.682 592.19 241.284C591.838 241.885 591.347 242.362 590.716 242.714C590.085 243.051 589.367 243.22 588.56 243.22ZM588.956 240.932C589.851 240.932 590.569 240.631 591.112 240.03C591.669 239.428 591.948 238.658 591.948 237.72C591.948 237.089 591.823 236.532 591.574 236.048C591.325 235.564 590.973 235.19 590.518 234.926C590.078 234.647 589.557 234.508 588.956 234.508C588.369 234.508 587.849 234.647 587.394 234.926C586.954 235.19 586.602 235.564 586.338 236.048C586.089 236.532 585.964 237.089 585.964 237.72C585.964 238.35 586.089 238.908 586.338 239.392C586.602 239.876 586.954 240.257 587.394 240.536C587.849 240.8 588.369 240.932 588.956 240.932ZM591.794 243V240.162L592.212 237.588L591.794 235.036V232.44H594.214V243H591.794Z" fill="black"></path><path d="M596.922 243V232.44H599.342V243H596.922ZM598.132 230.504C597.721 230.504 597.376 230.364 597.098 230.086C596.834 229.807 596.702 229.462 596.702 229.052C596.702 228.641 596.834 228.296 597.098 228.018C597.376 227.739 597.721 227.6 598.132 227.6C598.557 227.6 598.902 227.739 599.166 228.018C599.43 228.296 599.562 228.641 599.562 229.052C599.562 229.462 599.43 229.807 599.166 230.086C598.902 230.364 598.557 230.504 598.132 230.504Z" fill="black"></path><path d="M609.294 243V236.906C609.294 236.202 609.067 235.622 608.612 235.168C608.172 234.713 607.6 234.486 606.896 234.486C606.427 234.486 606.009 234.588 605.642 234.794C605.275 234.999 604.989 235.285 604.784 235.652C604.579 236.018 604.476 236.436 604.476 236.906L603.53 236.378C603.53 235.571 603.706 234.86 604.058 234.244C604.41 233.613 604.894 233.122 605.51 232.77C606.141 232.403 606.845 232.22 607.622 232.22C608.414 232.22 609.118 232.425 609.734 232.836C610.35 233.232 610.834 233.752 611.186 234.398C611.538 235.028 611.714 235.688 611.714 236.378V243H609.294ZM602.056 243V232.44H604.476V243H602.056Z" fill="black"></path><path d="M615.65 243V228.04H618.07V243H615.65ZM613.12 234.64V232.44H620.6V234.64H613.12Z" fill="black"></path><path d="M622.381 243V232.44H624.801V243H622.381ZM623.591 230.504C623.18 230.504 622.835 230.364 622.557 230.086C622.293 229.807 622.161 229.462 622.161 229.052C622.161 228.641 622.293 228.296 622.557 228.018C622.835 227.739 623.18 227.6 623.591 227.6C624.016 227.6 624.361 227.739 624.625 228.018C624.889 228.296 625.021 228.641 625.021 229.052C625.021 229.462 624.889 229.807 624.625 230.086C624.361 230.364 624.016 230.504 623.591 230.504Z" fill="black"></path><path d="M634.753 243V236.906C634.753 236.202 634.526 235.622 634.071 235.168C633.631 234.713 633.059 234.486 632.355 234.486C631.886 234.486 631.467 234.588 631.101 234.794C630.734 234.999 630.448 235.285 630.243 235.652C630.038 236.018 629.935 236.436 629.935 236.906L628.989 236.378C628.989 235.571 629.165 234.86 629.517 234.244C629.869 233.613 630.353 233.122 630.969 232.77C631.6 232.403 632.304 232.22 633.081 232.22C633.873 232.22 634.577 232.425 635.193 232.836C635.809 233.232 636.293 233.752 636.645 234.398C636.997 235.028 637.173 235.688 637.173 236.378V243H634.753ZM627.515 243V232.44H629.935V243H627.515Z" fill="black"></path><path d="M644.032 247.62C642.917 247.62 641.942 247.414 641.106 247.004C640.27 246.608 639.595 246.043 639.082 245.31L640.666 243.726C641.091 244.254 641.575 244.65 642.118 244.914C642.661 245.178 643.313 245.31 644.076 245.31C645.029 245.31 645.785 245.06 646.342 244.562C646.899 244.078 647.178 243.41 647.178 242.56V239.964L647.596 237.632L647.178 235.278V232.44H649.598V242.56C649.598 243.572 649.363 244.452 648.894 245.2C648.425 245.962 647.772 246.556 646.936 246.982C646.1 247.407 645.132 247.62 644.032 247.62ZM643.922 242.78C642.983 242.78 642.133 242.552 641.37 242.098C640.622 241.628 640.028 240.99 639.588 240.184C639.163 239.377 638.95 238.475 638.95 237.478C638.95 236.48 639.163 235.586 639.588 234.794C640.028 234.002 640.622 233.378 641.37 232.924C642.133 232.454 642.983 232.22 643.922 232.22C644.758 232.22 645.491 232.388 646.122 232.726C646.753 233.063 647.244 233.532 647.596 234.134C647.948 234.72 648.124 235.41 648.124 236.202V238.798C648.124 239.575 647.941 240.264 647.574 240.866C647.222 241.467 646.731 241.936 646.1 242.274C645.469 242.611 644.743 242.78 643.922 242.78ZM644.406 240.492C644.993 240.492 645.506 240.367 645.946 240.118C646.386 239.868 646.723 239.524 646.958 239.084C647.207 238.629 647.332 238.101 647.332 237.5C647.332 236.898 647.207 236.378 646.958 235.938C646.723 235.483 646.386 235.131 645.946 234.882C645.506 234.632 644.993 234.508 644.406 234.508C643.819 234.508 643.299 234.632 642.844 234.882C642.404 235.131 642.059 235.483 641.81 235.938C641.561 236.378 641.436 236.898 641.436 237.5C641.436 238.086 641.561 238.607 641.81 239.062C642.059 239.516 642.404 239.868 642.844 240.118C643.299 240.367 643.819 240.492 644.406 240.492Z" fill="black"></path><path d="M969.028 242V226.6H971.558V242H969.028ZM978.818 242V226.6H981.348V242H978.818ZM970.766 235.18V232.87H979.368V235.18H970.766Z" fill="black"></path><path d="M989.773 242L983.547 226.6H986.297L991.159 239.074H990.191L995.097 226.6H997.803L991.533 242H989.773Z" fill="black"></path><path d="M996.802 242L1003.14 226.6H1004.9L1011.19 242H1008.46L1003.53 229.526H1004.46L999.486 242H996.802ZM999.926 239.03V236.83H1008.09V239.03H999.926Z" fill="black"></path><path d="M1019.29 242.22C1018.18 242.22 1017.15 242.022 1016.19 241.626C1015.25 241.215 1014.43 240.65 1013.73 239.932C1013.02 239.198 1012.48 238.355 1012.1 237.402C1011.72 236.434 1011.53 235.4 1011.53 234.3C1011.53 233.2 1011.72 232.173 1012.1 231.22C1012.48 230.252 1013.02 229.408 1013.73 228.69C1014.43 227.971 1015.25 227.406 1016.19 226.996C1017.15 226.585 1018.18 226.38 1019.29 226.38C1020.54 226.38 1021.62 226.585 1022.53 226.996C1023.44 227.406 1024.24 227.964 1024.95 228.668L1023.23 230.384C1022.78 229.885 1022.22 229.496 1021.56 229.218C1020.91 228.939 1020.16 228.8 1019.29 228.8C1018.53 228.8 1017.83 228.932 1017.2 229.196C1016.57 229.46 1016.02 229.841 1015.55 230.34C1015.1 230.824 1014.75 231.403 1014.5 232.078C1014.25 232.752 1014.12 233.493 1014.12 234.3C1014.12 235.106 1014.25 235.847 1014.5 236.522C1014.75 237.196 1015.1 237.783 1015.55 238.282C1016.02 238.766 1016.57 239.14 1017.2 239.404C1017.83 239.668 1018.53 239.8 1019.29 239.8C1020.23 239.8 1021.02 239.66 1021.67 239.382C1022.33 239.088 1022.89 238.692 1023.34 238.194L1025.06 239.91C1024.35 240.628 1023.53 241.193 1022.57 241.604C1021.62 242.014 1020.53 242.22 1019.29 242.22Z" fill="black"></path><path d="M893.94 541V525.599H896.47V541H893.94ZM895.678 541V538.69H904.302V541H895.678ZM895.678 534.245V532.023H903.554V534.245H895.678ZM895.678 527.909V525.599H904.192V527.909H895.678Z" fill="black"></path><path d="M906.586 541V525.159H909.006V541H906.586Z" fill="black"></path><path d="M916.605 541.219C915.549 541.219 914.596 540.985 913.745 540.516C912.909 540.032 912.242 539.372 911.743 538.536C911.259 537.7 911.017 536.761 911.017 535.719C911.017 534.678 911.259 533.747 911.743 532.926C912.227 532.09 912.88 531.429 913.701 530.945C914.537 530.461 915.461 530.219 916.473 530.219C917.456 530.219 918.321 530.447 919.069 530.901C919.832 531.356 920.426 531.979 920.851 532.771C921.291 533.563 921.511 534.466 921.511 535.478C921.511 535.654 921.497 535.837 921.467 536.028C921.453 536.204 921.423 536.402 921.379 536.622H912.711V534.642H920.125L919.223 535.434C919.194 534.788 919.069 534.245 918.849 533.805C918.629 533.365 918.314 533.028 917.903 532.794C917.507 532.559 917.016 532.442 916.429 532.442C915.813 532.442 915.278 532.574 914.823 532.838C914.369 533.102 914.017 533.476 913.767 533.96C913.518 534.429 913.393 534.994 913.393 535.654C913.393 536.314 913.525 536.893 913.789 537.392C914.053 537.89 914.427 538.279 914.911 538.557C915.395 538.821 915.953 538.953 916.583 538.953C917.126 538.953 917.625 538.858 918.079 538.668C918.549 538.477 918.945 538.198 919.267 537.831L920.807 539.393C920.294 539.995 919.671 540.45 918.937 540.758C918.204 541.066 917.427 541.219 916.605 541.219Z" fill="black"></path><path d="M928.313 541.219C927.272 541.219 926.326 540.978 925.475 540.494C924.639 540.01 923.979 539.349 923.495 538.513C923.011 537.677 922.769 536.746 922.769 535.719C922.769 534.678 923.011 533.747 923.495 532.926C923.979 532.09 924.639 531.429 925.475 530.945C926.326 530.461 927.272 530.219 928.313 530.219C929.135 530.219 929.897 530.381 930.601 530.703C931.32 531.011 931.929 531.459 932.427 532.046L930.843 533.651C930.535 533.285 930.161 533.014 929.721 532.838C929.296 532.647 928.827 532.552 928.313 532.552C927.712 532.552 927.177 532.691 926.707 532.969C926.253 533.233 925.893 533.6 925.629 534.07C925.38 534.539 925.255 535.089 925.255 535.719C925.255 536.335 925.38 536.886 925.629 537.37C925.893 537.839 926.253 538.213 926.707 538.492C927.177 538.756 927.712 538.888 928.313 538.888C928.827 538.888 929.296 538.8 929.721 538.624C930.161 538.433 930.535 538.154 930.843 537.788L932.427 539.393C931.929 539.98 931.32 540.435 930.601 540.758C929.897 541.066 929.135 541.219 928.313 541.219Z" fill="black"></path><path d="M935.606 541V526.039H938.026V541H935.606ZM933.076 532.64V530.44H940.556V532.64H933.076Z" fill="black"></path><path d="M942.315 541V530.44H944.735V541H942.315ZM944.735 535.125L943.899 534.708C943.899 533.373 944.192 532.295 944.779 531.474C945.38 530.638 946.282 530.219 947.485 530.219C948.013 530.219 948.489 530.315 948.915 530.505C949.34 530.696 949.736 531.004 950.103 531.43L948.519 533.057C948.328 532.852 948.115 532.705 947.881 532.617C947.646 532.529 947.375 532.486 947.067 532.486C946.392 532.486 945.835 532.698 945.395 533.124C944.955 533.549 944.735 534.216 944.735 535.125Z" fill="black"></path><path d="M951.296 541V530.44H953.716V541H951.296ZM952.506 528.504C952.095 528.504 951.75 528.364 951.472 528.086C951.208 527.807 951.076 527.462 951.076 527.052C951.076 526.641 951.208 526.296 951.472 526.018C951.75 525.739 952.095 525.599 952.506 525.599C952.931 525.599 953.276 525.739 953.54 526.018C953.804 526.296 953.936 526.641 953.936 527.052C953.936 527.462 953.804 527.807 953.54 528.086C953.276 528.364 952.931 528.504 952.506 528.504Z" fill="black"></path><path d="M961.292 541.219C960.251 541.219 959.305 540.978 958.454 540.494C957.618 540.01 956.958 539.349 956.474 538.513C955.99 537.677 955.748 536.746 955.748 535.719C955.748 534.678 955.99 533.747 956.474 532.926C956.958 532.09 957.618 531.429 958.454 530.945C959.305 530.461 960.251 530.219 961.292 530.219C962.113 530.219 962.876 530.381 963.58 530.703C964.299 531.011 964.907 531.459 965.406 532.046L963.822 533.651C963.514 533.285 963.14 533.014 962.7 532.838C962.275 532.647 961.805 532.552 961.292 532.552C960.691 532.552 960.155 532.691 959.686 532.969C959.231 533.233 958.872 533.6 958.608 534.07C958.359 534.539 958.234 535.089 958.234 535.719C958.234 536.335 958.359 536.886 958.608 537.37C958.872 537.839 959.231 538.213 959.686 538.492C960.155 538.756 960.691 538.888 961.292 538.888C961.805 538.888 962.275 538.8 962.7 538.624C963.14 538.433 963.514 538.154 963.822 537.788L965.406 539.393C964.907 539.98 964.299 540.435 963.58 540.758C962.876 541.066 962.113 541.219 961.292 541.219Z" fill="black"></path><path d="M967.173 541V530.44H969.593V541H967.173ZM968.383 528.504C967.972 528.504 967.627 528.364 967.349 528.086C967.085 527.807 966.953 527.462 966.953 527.052C966.953 526.641 967.085 526.296 967.349 526.018C967.627 525.739 967.972 525.599 968.383 525.599C968.808 525.599 969.153 525.739 969.417 526.018C969.681 526.296 969.813 526.641 969.813 527.052C969.813 527.462 969.681 527.807 969.417 528.086C969.153 528.364 968.808 528.504 968.383 528.504Z" fill="black"></path><path d="M976.729 541.219C975.775 541.219 974.91 540.978 974.133 540.494C973.37 540.01 972.761 539.357 972.307 538.536C971.867 537.7 971.647 536.768 971.647 535.742C971.647 534.7 971.867 533.769 972.307 532.948C972.761 532.112 973.37 531.452 974.133 530.968C974.91 530.469 975.775 530.219 976.729 530.219C977.535 530.219 978.247 530.395 978.863 530.747C979.494 531.085 979.992 531.554 980.359 532.156C980.725 532.757 980.909 533.439 980.909 534.202V537.237C980.909 538 980.725 538.682 980.359 539.284C980.007 539.885 979.515 540.362 978.885 540.714C978.254 541.051 977.535 541.219 976.729 541.219ZM977.125 538.932C978.019 538.932 978.738 538.631 979.281 538.03C979.838 537.428 980.117 536.658 980.117 535.719C980.117 535.089 979.992 534.531 979.743 534.047C979.494 533.563 979.141 533.19 978.687 532.926C978.247 532.647 977.726 532.508 977.125 532.508C976.538 532.508 976.018 532.647 975.563 532.926C975.123 533.19 974.771 533.563 974.507 534.047C974.258 534.531 974.133 535.089 974.133 535.719C974.133 536.35 974.258 536.908 974.507 537.392C974.771 537.876 975.123 538.257 975.563 538.536C976.018 538.8 976.538 538.932 977.125 538.932ZM979.963 541V538.161L980.381 535.588L979.963 533.036V530.44H982.383V541H979.963Z" fill="black"></path><path d="M992.307 541V534.906C992.307 534.202 992.079 533.622 991.625 533.168C991.185 532.713 990.613 532.486 989.909 532.486C989.439 532.486 989.021 532.588 988.655 532.794C988.288 532.999 988.002 533.285 987.797 533.651C987.591 534.018 987.489 534.436 987.489 534.906L986.543 534.378C986.543 533.571 986.719 532.86 987.071 532.244C987.423 531.613 987.907 531.122 988.523 530.77C989.153 530.403 989.857 530.219 990.635 530.219C991.427 530.219 992.131 530.425 992.747 530.836C993.363 531.232 993.847 531.752 994.199 532.398C994.551 533.028 994.727 533.688 994.727 534.378V541H992.307ZM985.069 541V530.44H987.489V541H985.069Z" fill="black"></path><path d="M1000.64 541.219C1000.05 541.219 999.488 541.146 998.946 541C998.403 540.838 997.904 540.618 997.45 540.34C996.995 540.046 996.599 539.694 996.262 539.284L997.802 537.744C998.168 538.169 998.586 538.491 999.056 538.711C999.54 538.917 1000.08 539.02 1000.68 539.02C1001.23 539.02 1001.64 538.939 1001.92 538.778C1002.19 538.616 1002.33 538.381 1002.33 538.073C1002.33 537.751 1002.2 537.502 1001.94 537.326C1001.67 537.15 1001.33 537.003 1000.9 536.885C1000.49 536.753 1000.05 536.622 999.584 536.49C999.129 536.358 998.689 536.181 998.264 535.961C997.853 535.727 997.516 535.412 997.252 535.016C996.988 534.62 996.856 534.106 996.856 533.476C996.856 532.801 997.01 532.221 997.318 531.737C997.64 531.253 998.088 530.88 998.66 530.616C999.246 530.352 999.943 530.219 1000.75 530.219C1001.6 530.219 1002.35 530.374 1002.99 530.682C1003.65 530.975 1004.2 531.422 1004.64 532.023L1003.1 533.564C1002.8 533.182 1002.44 532.896 1002.05 532.706C1001.65 532.515 1001.2 532.419 1000.68 532.419C1000.2 532.419 999.826 532.493 999.562 532.64C999.298 532.786 999.166 532.999 999.166 533.278C999.166 533.571 999.298 533.798 999.562 533.96C999.826 534.121 1000.16 534.26 1000.57 534.378C1001 534.495 1001.44 534.627 1001.89 534.773C1002.36 534.905 1002.8 535.096 1003.21 535.346C1003.64 535.58 1003.98 535.903 1004.25 536.314C1004.51 536.71 1004.64 537.23 1004.64 537.875C1004.64 538.902 1004.28 539.716 1003.57 540.318C1002.85 540.919 1001.87 541.219 1000.64 541.219Z" fill="black"></path><path d="M1010.87 534.729V532.53H1020.57V534.729H1010.87ZM1014.61 528.547H1016.85V538.69H1014.61V528.547Z" fill="black"></path><path d="M914.713 560.192V557.992H918.563C919.091 557.992 919.553 557.889 919.949 557.684C920.359 557.464 920.682 557.163 920.917 556.781C921.151 556.385 921.269 555.924 921.269 555.396C921.269 554.868 921.151 554.413 920.917 554.031C920.682 553.635 920.359 553.335 919.949 553.13C919.553 552.91 919.091 552.799 918.563 552.799H914.713V550.599H918.695C919.663 550.599 920.528 550.797 921.291 551.193C922.068 551.589 922.677 552.147 923.117 552.866C923.571 553.584 923.799 554.428 923.799 555.396C923.799 556.364 923.571 557.207 923.117 557.926C922.677 558.644 922.068 559.202 921.291 559.598C920.528 559.994 919.663 560.192 918.695 560.192H914.713ZM912.975 566V550.599H915.505V566H912.975Z" fill="black"></path><path d="M925.922 566V550.159H928.342V566H925.922Z" fill="black"></path><path d="M935.369 566.219C934.475 566.219 933.675 566.021 932.971 565.625C932.282 565.229 931.739 564.687 931.343 563.997C930.962 563.293 930.771 562.487 930.771 561.578V555.44H933.191V561.468C933.191 561.981 933.272 562.421 933.433 562.788C933.609 563.14 933.859 563.411 934.181 563.602C934.519 563.792 934.915 563.888 935.369 563.888C936.073 563.888 936.609 563.682 936.975 563.271C937.357 562.846 937.547 562.245 937.547 561.468V555.44H939.967V561.578C939.967 562.502 939.769 563.316 939.373 564.02C938.992 564.709 938.457 565.252 937.767 565.648C937.078 566.029 936.279 566.219 935.369 566.219Z" fill="black"></path><path d="M942.401 566V555.44H944.821V566H942.401ZM949.419 566V559.708C949.419 559.004 949.199 558.461 948.759 558.08C948.319 557.684 947.776 557.486 947.131 557.486C946.691 557.486 946.295 557.574 945.943 557.75C945.605 557.926 945.334 558.182 945.129 558.52C944.923 558.842 944.821 559.238 944.821 559.708L943.875 559.18C943.875 558.373 944.051 557.676 944.403 557.09C944.755 556.503 945.231 556.048 945.833 555.726C946.434 555.388 947.109 555.219 947.857 555.219C948.605 555.219 949.279 555.381 949.881 555.703C950.482 556.026 950.959 556.481 951.311 557.068C951.663 557.654 951.839 558.358 951.839 559.18V566H949.419ZM956.437 566V559.708C956.437 559.004 956.217 558.461 955.777 558.08C955.337 557.684 954.794 557.486 954.149 557.486C953.723 557.486 953.335 557.574 952.983 557.75C952.631 557.926 952.352 558.182 952.147 558.52C951.941 558.842 951.839 559.238 951.839 559.708L950.475 559.18C950.548 558.373 950.783 557.676 951.179 557.09C951.575 556.503 952.081 556.048 952.697 555.726C953.327 555.388 954.017 555.219 954.765 555.219C955.527 555.219 956.217 555.381 956.833 555.703C957.449 556.026 957.94 556.481 958.307 557.068C958.673 557.654 958.857 558.358 958.857 559.18V566H956.437Z" fill="black"></path><path d="M967.004 566.219C966.197 566.219 965.479 566.051 964.848 565.714C964.217 565.362 963.718 564.885 963.352 564.284C963 563.682 962.824 563 962.824 562.237V559.202C962.824 558.439 963.007 557.757 963.374 557.156C963.741 556.554 964.239 556.085 964.87 555.747C965.5 555.395 966.212 555.219 967.004 555.219C967.957 555.219 968.815 555.469 969.578 555.968C970.355 556.452 970.964 557.112 971.404 557.948C971.858 558.769 972.086 559.7 972.086 560.742C972.086 561.768 971.858 562.7 971.404 563.536C970.964 564.357 970.355 565.01 969.578 565.494C968.815 565.978 967.957 566.219 967.004 566.219ZM966.608 563.932C967.194 563.932 967.708 563.8 968.148 563.536C968.602 563.257 968.954 562.876 969.204 562.392C969.468 561.908 969.6 561.35 969.6 560.719C969.6 560.089 969.468 559.531 969.204 559.047C968.954 558.563 968.602 558.19 968.148 557.926C967.708 557.647 967.194 557.508 966.608 557.508C966.021 557.508 965.501 557.647 965.046 557.926C964.591 558.19 964.239 558.563 963.99 559.047C963.74 559.531 963.616 560.089 963.616 560.719C963.616 561.35 963.74 561.908 963.99 562.392C964.239 562.876 964.591 563.257 965.046 563.536C965.501 563.8 966.021 563.932 966.608 563.932ZM961.35 566V550.159H963.77V558.036L963.352 560.588L963.77 563.161V566H961.35Z" fill="black"></path><path d="M974.134 566V555.44H976.554V566H974.134ZM975.344 553.504C974.933 553.504 974.588 553.364 974.31 553.086C974.046 552.807 973.914 552.462 973.914 552.052C973.914 551.641 974.046 551.296 974.31 551.018C974.588 550.739 974.933 550.599 975.344 550.599C975.769 550.599 976.114 550.739 976.378 551.018C976.642 551.296 976.774 551.641 976.774 552.052C976.774 552.462 976.642 552.807 976.378 553.086C976.114 553.364 975.769 553.504 975.344 553.504Z" fill="black"></path><path d="M986.506 566V559.906C986.506 559.202 986.278 558.622 985.824 558.168C985.384 557.713 984.812 557.486 984.108 557.486C983.638 557.486 983.22 557.588 982.854 557.794C982.487 557.999 982.201 558.285 981.996 558.651C981.79 559.018 981.688 559.436 981.688 559.906L980.742 559.378C980.742 558.571 980.918 557.86 981.27 557.244C981.622 556.613 982.106 556.122 982.722 555.77C983.352 555.403 984.056 555.219 984.834 555.219C985.626 555.219 986.33 555.425 986.946 555.836C987.562 556.232 988.046 556.752 988.398 557.398C988.75 558.028 988.926 558.688 988.926 559.378V566H986.506ZM979.268 566V555.44H981.688V566H979.268Z" fill="black"></path><path d="M995.785 570.62C994.67 570.62 993.695 570.414 992.859 570.004C992.023 569.608 991.348 569.043 990.835 568.31L992.419 566.726C992.844 567.254 993.328 567.65 993.871 567.914C994.414 568.178 995.066 568.31 995.829 568.31C996.782 568.31 997.538 568.06 998.095 567.562C998.652 567.078 998.931 566.41 998.931 565.56V562.964L999.349 560.632L998.931 558.278V555.44H1001.35V565.56C1001.35 566.572 1001.12 567.452 1000.65 568.2C1000.18 568.962 999.525 569.556 998.689 569.982C997.853 570.407 996.885 570.62 995.785 570.62ZM995.675 565.78C994.736 565.78 993.886 565.552 993.123 565.098C992.375 564.628 991.781 563.99 991.341 563.184C990.916 562.377 990.703 561.475 990.703 560.478C990.703 559.48 990.916 558.586 991.341 557.794C991.781 557.002 992.375 556.378 993.123 555.924C993.886 555.454 994.736 555.219 995.675 555.219C996.511 555.219 997.244 555.388 997.875 555.726C998.506 556.063 998.997 556.532 999.349 557.133C999.701 557.72 999.877 558.41 999.877 559.202V561.797C999.877 562.575 999.694 563.264 999.327 563.866C998.975 564.467 998.484 564.936 997.853 565.273C997.222 565.611 996.496 565.78 995.675 565.78ZM996.159 563.492C996.746 563.492 997.259 563.367 997.699 563.117C998.139 562.868 998.476 562.523 998.711 562.083C998.96 561.629 999.085 561.101 999.085 560.5C999.085 559.898 998.96 559.378 998.711 558.938C998.476 558.483 998.139 558.131 997.699 557.882C997.259 557.632 996.746 557.508 996.159 557.508C995.572 557.508 995.052 557.632 994.597 557.882C994.157 558.131 993.812 558.483 993.563 558.938C993.314 559.378 993.189 559.898 993.189 560.5C993.189 561.086 993.314 561.607 993.563 562.062C993.812 562.516 994.157 562.868 994.597 563.117C995.052 563.367 995.572 563.492 996.159 563.492Z" fill="black"></path><path d="M586.545 644.466V642.375H590.439C591.216 642.375 591.817 642.177 592.243 641.781C592.683 641.371 592.903 640.806 592.903 640.088C592.903 639.442 592.69 638.9 592.265 638.46C591.839 638.02 591.238 637.799 590.461 637.799H586.545V635.599H590.571C591.539 635.599 592.389 635.797 593.123 636.193C593.856 636.575 594.421 637.103 594.817 637.778C595.227 638.438 595.433 639.193 595.433 640.044C595.433 640.938 595.227 641.715 594.817 642.375C594.421 643.035 593.856 643.549 593.123 643.916C592.389 644.282 591.539 644.466 590.571 644.466H586.545ZM584.807 651V635.599H587.337V651H584.807ZM593.255 651L587.865 644.312L590.219 643.453L596.445 651H593.255Z" fill="black"></path><path d="M602.574 651.219C601.518 651.219 600.565 650.985 599.714 650.516C598.878 650.032 598.211 649.372 597.712 648.536C597.228 647.7 596.986 646.761 596.986 645.719C596.986 644.678 597.228 643.747 597.712 642.926C598.196 642.09 598.849 641.429 599.67 640.945C600.506 640.461 601.43 640.219 602.442 640.219C603.425 640.219 604.29 640.447 605.038 640.901C605.801 641.356 606.395 641.979 606.82 642.771C607.26 643.563 607.48 644.466 607.48 645.478C607.48 645.654 607.465 645.837 607.436 646.028C607.421 646.204 607.392 646.402 607.348 646.622H598.68V644.642H606.094L605.192 645.434C605.163 644.788 605.038 644.245 604.818 643.805C604.598 643.365 604.283 643.028 603.872 642.794C603.476 642.559 602.985 642.442 602.398 642.442C601.782 642.442 601.247 642.574 600.792 642.838C600.338 643.102 599.985 643.476 599.736 643.96C599.487 644.429 599.362 644.994 599.362 645.654C599.362 646.314 599.494 646.893 599.758 647.392C600.022 647.89 600.396 648.279 600.88 648.557C601.364 648.821 601.922 648.953 602.552 648.953C603.095 648.953 603.593 648.858 604.048 648.668C604.517 648.477 604.913 648.198 605.236 647.831L606.776 649.393C606.263 649.995 605.64 650.45 604.906 650.758C604.173 651.066 603.395 651.219 602.574 651.219Z" fill="black"></path><path d="M610.768 651V636.039H613.188V651H610.768ZM608.238 642.64V640.44H615.718V642.64H608.238Z" fill="black"></path><path d="M621.598 651.219C620.645 651.219 619.779 650.978 619.002 650.494C618.239 650.01 617.631 649.357 617.176 648.536C616.736 647.7 616.516 646.768 616.516 645.742C616.516 644.7 616.736 643.769 617.176 642.948C617.631 642.112 618.239 641.452 619.002 640.968C619.779 640.469 620.645 640.219 621.598 640.219C622.405 640.219 623.116 640.395 623.732 640.747C624.363 641.085 624.861 641.554 625.228 642.156C625.595 642.757 625.778 643.439 625.778 644.202V647.237C625.778 648 625.595 648.682 625.228 649.284C624.876 649.885 624.385 650.362 623.754 650.714C623.123 651.051 622.405 651.219 621.598 651.219ZM621.994 648.932C622.889 648.932 623.607 648.631 624.15 648.03C624.707 647.428 624.986 646.658 624.986 645.719C624.986 645.089 624.861 644.531 624.612 644.047C624.363 643.563 624.011 643.19 623.556 642.926C623.116 642.647 622.595 642.508 621.994 642.508C621.407 642.508 620.887 642.647 620.432 642.926C619.992 643.19 619.64 643.563 619.376 644.047C619.127 644.531 619.002 645.089 619.002 645.719C619.002 646.35 619.127 646.908 619.376 647.392C619.64 647.876 619.992 648.257 620.432 648.536C620.887 648.8 621.407 648.932 621.994 648.932ZM624.832 651V648.161L625.25 645.588L624.832 643.036V640.44H627.252V651H624.832Z" fill="black"></path><path d="M629.96 651V640.44H632.38V651H629.96ZM631.17 638.504C630.759 638.504 630.414 638.364 630.136 638.086C629.872 637.807 629.74 637.462 629.74 637.052C629.74 636.641 629.872 636.296 630.136 636.018C630.414 635.739 630.759 635.599 631.17 635.599C631.595 635.599 631.94 635.739 632.204 636.018C632.468 636.296 632.6 636.641 632.6 637.052C632.6 637.462 632.468 637.807 632.204 638.086C631.94 638.364 631.595 638.504 631.17 638.504Z" fill="black"></path><path d="M635.094 651V635.159H637.514V651H635.094Z" fill="black"></path><path d="M228.74 615.219C227.626 615.219 226.592 615.021 225.638 614.625C224.7 614.215 223.878 613.65 223.174 612.932C222.47 612.198 221.928 611.355 221.546 610.401C221.165 609.433 220.974 608.399 220.974 607.299C220.974 606.199 221.165 605.173 221.546 604.219C221.928 603.251 222.47 602.408 223.174 601.69C223.878 600.971 224.7 600.406 225.638 599.995C226.592 599.585 227.626 599.38 228.74 599.38C229.987 599.38 231.065 599.585 231.974 599.995C232.884 600.406 233.69 600.964 234.394 601.668L232.678 603.383C232.224 602.885 231.666 602.496 231.006 602.218C230.361 601.939 229.606 601.799 228.74 601.799C227.978 601.799 227.281 601.931 226.65 602.195C226.02 602.459 225.47 602.841 225 603.34C224.546 603.824 224.194 604.403 223.944 605.078C223.695 605.752 223.57 606.493 223.57 607.299C223.57 608.106 223.695 608.847 223.944 609.521C224.194 610.196 224.546 610.783 225 611.281C225.47 611.765 226.02 612.14 226.65 612.404C227.281 612.668 227.978 612.799 228.74 612.799C229.679 612.799 230.471 612.66 231.116 612.382C231.776 612.088 232.334 611.692 232.788 611.193L234.504 612.909C233.8 613.628 232.972 614.193 232.018 614.604C231.065 615.014 229.972 615.219 228.74 615.219Z" fill="black"></path><path d="M240.971 615.219C239.944 615.219 239.013 614.978 238.177 614.494C237.341 613.995 236.674 613.328 236.175 612.492C235.691 611.656 235.449 610.724 235.449 609.698C235.449 608.671 235.691 607.747 236.175 606.926C236.674 606.104 237.341 605.452 238.177 604.968C239.013 604.469 239.944 604.219 240.971 604.219C242.012 604.219 242.951 604.461 243.787 604.945C244.623 605.429 245.283 606.09 245.767 606.926C246.266 607.747 246.515 608.671 246.515 609.698C246.515 610.724 246.266 611.656 245.767 612.492C245.283 613.328 244.623 613.995 243.787 614.494C242.951 614.978 242.012 615.219 240.971 615.219ZM240.971 612.888C241.572 612.888 242.1 612.756 242.555 612.492C243.024 612.213 243.384 611.832 243.633 611.348C243.897 610.864 244.029 610.314 244.029 609.698C244.029 609.082 243.897 608.539 243.633 608.07C243.369 607.6 243.01 607.233 242.555 606.969C242.1 606.691 241.572 606.552 240.971 606.552C240.384 606.552 239.856 606.691 239.387 606.969C238.932 607.233 238.573 607.6 238.309 608.07C238.06 608.539 237.935 609.082 237.935 609.698C237.935 610.314 238.06 610.864 238.309 611.348C238.573 611.832 238.932 612.213 239.387 612.492C239.856 612.756 240.384 612.888 240.971 612.888Z" fill="black"></path><path d="M255.766 615V608.906C255.766 608.202 255.538 607.622 255.084 607.168C254.644 606.713 254.072 606.486 253.368 606.486C252.898 606.486 252.48 606.588 252.114 606.794C251.747 606.999 251.461 607.285 251.256 607.651C251.05 608.018 250.948 608.436 250.948 608.906L250.002 608.378C250.002 607.571 250.178 606.86 250.53 606.244C250.882 605.613 251.366 605.122 251.982 604.77C252.612 604.403 253.316 604.219 254.094 604.219C254.886 604.219 255.59 604.425 256.206 604.836C256.822 605.232 257.306 605.752 257.658 606.398C258.01 607.028 258.186 607.688 258.186 608.378V615H255.766ZM248.528 615V604.44H250.948V615H248.528Z" fill="black"></path><path d="M264.099 615.219C263.512 615.219 262.947 615.146 262.405 615C261.862 614.838 261.363 614.618 260.909 614.34C260.454 614.046 260.058 613.694 259.721 613.284L261.261 611.744C261.627 612.169 262.045 612.491 262.515 612.711C262.999 612.917 263.541 613.02 264.143 613.02C264.685 613.02 265.096 612.939 265.375 612.778C265.653 612.616 265.793 612.381 265.793 612.073C265.793 611.751 265.661 611.502 265.397 611.326C265.133 611.15 264.788 611.003 264.363 610.885C263.952 610.753 263.512 610.622 263.043 610.49C262.588 610.358 262.148 610.181 261.723 609.961C261.312 609.727 260.975 609.412 260.711 609.016C260.447 608.62 260.315 608.106 260.315 607.476C260.315 606.801 260.469 606.221 260.777 605.737C261.099 605.253 261.547 604.88 262.119 604.616C262.705 604.352 263.402 604.219 264.209 604.219C265.059 604.219 265.807 604.374 266.453 604.682C267.113 604.975 267.663 605.422 268.103 606.023L266.563 607.564C266.255 607.182 265.903 606.896 265.507 606.706C265.111 606.515 264.656 606.419 264.143 606.419C263.659 606.419 263.285 606.493 263.021 606.64C262.757 606.786 262.625 606.999 262.625 607.278C262.625 607.571 262.757 607.798 263.021 607.96C263.285 608.121 263.622 608.26 264.033 608.378C264.458 608.495 264.898 608.627 265.353 608.773C265.822 608.905 266.262 609.096 266.673 609.346C267.098 609.58 267.443 609.903 267.707 610.314C267.971 610.71 268.103 611.23 268.103 611.875C268.103 612.902 267.743 613.716 267.025 614.318C266.306 614.919 265.331 615.219 264.099 615.219Z" fill="black"></path><path d="M271.704 615V600.039H274.124V615H271.704ZM269.174 606.64V604.44H276.654V606.64H269.174Z" fill="black"></path><path d="M278.412 615V604.44H280.832V615H278.412ZM280.832 609.125L279.996 608.708C279.996 607.373 280.29 606.295 280.876 605.474C281.478 604.638 282.38 604.219 283.582 604.219C284.11 604.219 284.587 604.315 285.012 604.505C285.438 604.696 285.834 605.004 286.2 605.43L284.616 607.057C284.426 606.852 284.213 606.705 283.978 606.617C283.744 606.529 283.472 606.486 283.164 606.486C282.49 606.486 281.932 606.698 281.492 607.124C281.052 607.549 280.832 608.216 280.832 609.125Z" fill="black"></path><path d="M291.705 615.219C290.811 615.219 290.011 615.021 289.307 614.625C288.618 614.229 288.075 613.687 287.679 612.997C287.298 612.293 287.107 611.487 287.107 610.578V604.44H289.527V610.468C289.527 610.981 289.608 611.421 289.769 611.788C289.945 612.14 290.195 612.411 290.517 612.602C290.855 612.792 291.251 612.888 291.705 612.888C292.409 612.888 292.945 612.682 293.311 612.271C293.693 611.846 293.883 611.245 293.883 610.468V604.44H296.303V610.578C296.303 611.502 296.105 612.316 295.709 613.02C295.328 613.709 294.793 614.252 294.103 614.648C293.414 615.029 292.615 615.219 291.705 615.219Z" fill="black"></path><path d="M303.599 615.219C302.557 615.219 301.611 614.978 300.761 614.494C299.925 614.01 299.265 613.349 298.781 612.513C298.297 611.677 298.055 610.746 298.055 609.719C298.055 608.678 298.297 607.747 298.781 606.926C299.265 606.09 299.925 605.429 300.761 604.945C301.611 604.461 302.557 604.219 303.599 604.219C304.42 604.219 305.183 604.381 305.887 604.703C306.605 605.011 307.214 605.459 307.713 606.046L306.129 607.651C305.821 607.285 305.447 607.014 305.007 606.838C304.581 606.647 304.112 606.552 303.599 606.552C302.997 606.552 302.462 606.691 301.993 606.969C301.538 607.233 301.179 607.6 300.915 608.07C300.665 608.539 300.541 609.089 300.541 609.719C300.541 610.335 300.665 610.886 300.915 611.37C301.179 611.839 301.538 612.213 301.993 612.492C302.462 612.756 302.997 612.888 303.599 612.888C304.112 612.888 304.581 612.8 305.007 612.624C305.447 612.433 305.821 612.154 306.129 611.788L307.713 613.393C307.214 613.98 306.605 614.435 305.887 614.758C305.183 615.066 304.42 615.219 303.599 615.219Z" fill="black"></path><path d="M310.891 615V600.039H313.311V615H310.891ZM308.361 606.64V604.44H315.841V606.64H308.361Z" fill="black"></path><path d="M317.622 615V604.44H320.042V615H317.622ZM318.832 602.504C318.421 602.504 318.076 602.364 317.798 602.086C317.534 601.807 317.402 601.462 317.402 601.052C317.402 600.641 317.534 600.296 317.798 600.018C318.076 599.739 318.421 599.599 318.832 599.599C319.257 599.599 319.602 599.739 319.866 600.018C320.13 600.296 320.262 600.641 320.262 601.052C320.262 601.462 320.13 601.807 319.866 602.086C319.602 602.364 319.257 602.504 318.832 602.504Z" fill="black"></path><path d="M327.596 615.219C326.569 615.219 325.638 614.978 324.802 614.494C323.966 613.995 323.299 613.328 322.8 612.492C322.316 611.656 322.074 610.724 322.074 609.698C322.074 608.671 322.316 607.747 322.8 606.926C323.299 606.104 323.966 605.452 324.802 604.968C325.638 604.469 326.569 604.219 327.596 604.219C328.637 604.219 329.576 604.461 330.412 604.945C331.248 605.429 331.908 606.09 332.392 606.926C332.891 607.747 333.14 608.671 333.14 609.698C333.14 610.724 332.891 611.656 332.392 612.492C331.908 613.328 331.248 613.995 330.412 614.494C329.576 614.978 328.637 615.219 327.596 615.219ZM327.596 612.888C328.197 612.888 328.725 612.756 329.18 612.492C329.649 612.213 330.009 611.832 330.258 611.348C330.522 610.864 330.654 610.314 330.654 609.698C330.654 609.082 330.522 608.539 330.258 608.07C329.994 607.6 329.635 607.233 329.18 606.969C328.725 606.691 328.197 606.552 327.596 606.552C327.009 606.552 326.481 606.691 326.012 606.969C325.557 607.233 325.198 607.6 324.934 608.07C324.685 608.539 324.56 609.082 324.56 609.698C324.56 610.314 324.685 610.864 324.934 611.348C325.198 611.832 325.557 612.213 326.012 612.492C326.481 612.756 327.009 612.888 327.596 612.888Z" fill="black"></path><path d="M342.391 615V608.906C342.391 608.202 342.163 607.622 341.709 607.168C341.269 606.713 340.697 606.486 339.993 606.486C339.523 606.486 339.105 606.588 338.739 606.794C338.372 606.999 338.086 607.285 337.881 607.651C337.675 608.018 337.573 608.436 337.573 608.906L336.627 608.378C336.627 607.571 336.803 606.86 337.155 606.244C337.507 605.613 337.991 605.122 338.607 604.77C339.237 604.403 339.941 604.219 340.719 604.219C341.511 604.219 342.215 604.425 342.831 604.836C343.447 605.232 343.931 605.752 344.283 606.398C344.635 607.028 344.811 607.688 344.811 608.378V615H342.391ZM335.153 615V604.44H337.573V615H335.153Z" fill="black"></path><path d="M153.136 237.192V234.992H156.986C157.514 234.992 157.976 234.889 158.372 234.684C158.782 234.464 159.105 234.163 159.34 233.782C159.574 233.386 159.692 232.924 159.692 232.396C159.692 231.868 159.574 231.413 159.34 231.032C159.105 230.636 158.782 230.335 158.372 230.13C157.976 229.91 157.514 229.8 156.986 229.8H153.136V227.6H157.118C158.086 227.6 158.951 227.798 159.714 228.194C160.491 228.59 161.1 229.147 161.54 229.866C161.994 230.584 162.222 231.428 162.222 232.396C162.222 233.364 161.994 234.207 161.54 234.926C161.1 235.644 160.491 236.202 159.714 236.598C158.951 236.994 158.086 237.192 157.118 237.192H153.136ZM151.398 243V227.6H153.928V243H151.398Z" fill="black"></path><path d="M168.714 243.22C167.658 243.22 166.704 242.985 165.854 242.516C165.018 242.032 164.35 241.372 163.852 240.536C163.368 239.7 163.126 238.761 163.126 237.72C163.126 236.678 163.368 235.747 163.852 234.926C164.336 234.09 164.988 233.43 165.81 232.946C166.646 232.462 167.57 232.22 168.582 232.22C169.564 232.22 170.43 232.447 171.178 232.902C171.94 233.356 172.534 233.98 172.96 234.772C173.4 235.564 173.62 236.466 173.62 237.478C173.62 237.654 173.605 237.837 173.576 238.028C173.561 238.204 173.532 238.402 173.488 238.622H164.82V236.642H172.234L171.332 237.434C171.302 236.788 171.178 236.246 170.958 235.806C170.738 235.366 170.422 235.028 170.012 234.794C169.616 234.559 169.124 234.442 168.538 234.442C167.922 234.442 167.386 234.574 166.932 234.838C166.477 235.102 166.125 235.476 165.876 235.96C165.626 236.429 165.502 236.994 165.502 237.654C165.502 238.314 165.634 238.893 165.898 239.392C166.162 239.89 166.536 240.279 167.02 240.558C167.504 240.822 168.061 240.954 168.692 240.954C169.234 240.954 169.733 240.858 170.188 240.668C170.657 240.477 171.053 240.198 171.376 239.832L172.916 241.394C172.402 241.995 171.779 242.45 171.046 242.758C170.312 243.066 169.535 243.22 168.714 243.22Z" fill="black"></path><path d="M176.908 243V228.04H179.328V243H176.908ZM174.378 234.64V232.44H181.858V234.64H174.378Z" fill="black"></path></svg>