<svg xmlns="http://www.w3.org/2000/svg" width="1920" height="372.728" viewBox="0 0 1920 372.728"><g id="Group_10920" data-name="Group 10920" transform="translate(-158 -6882.3)"><path id="Path_704" data-name="Path 704" d="M1919.154,35.252V205.591s-137.1-73.375-459.39-64.806-369.528,1.6-645.215,0-304.107,15.184-516.46,30.376S0,205.591,0,205.591V0Z" transform="translate(158.846 7049.437)" fill="#e0ff5c"></path><path id="Path_705" data-name="Path 705" d="M0,124.757v156.18S359.588,200.5,615.012,221.6,1327.1,167.46,1511.35,165.25,1920,190.4,1920,190.4V0Z" transform="translate(158 6936.493)" fill="#a6ebcb"></path><path id="Path_706" data-name="Path 706" d="M0,87.922V245.217s263.8-30.58,597.129-25.059,648.876-65.5,893.924-52.9S1920,131.76,1920,131.76V0Z" transform="translate(158 6891.92)" fill="#8bdbff"></path><path id="Path_707" data-name="Path 707" d="M0,62.372V194.289S352,144.755,536.453,160.6s597.72-30.119,597.72-30.119l721.579-20.41H1920V0Z" transform="translate(158 6882.3)" fill="#fb84ee"></path><path id="Path_708" data-name="Path 708" d="M0,0V64.392S466.8,96.658,621.993,96.219s671.633-10.688,671.633-10.688L1756.8,64.392H1920V0Z" transform="translate(158 6883.221)" fill="#ffc352"></path></g></svg>